<?xml version="1.0" encoding="UTF-8" standalone="no"?>
<svg
   xmlns:dc="http://purl.org/dc/elements/1.1/"
   xmlns:cc="http://creativecommons.org/ns#"
   xmlns:rdf="http://www.w3.org/1999/02/22-rdf-syntax-ns#"
   xmlns:svg="http://www.w3.org/2000/svg"
   xmlns="http://www.w3.org/2000/svg"
   xmlns:sodipodi="http://sodipodi.sourceforge.net/DTD/sodipodi-0.dtd"
   xmlns:inkscape="http://www.inkscape.org/namespaces/inkscape"
   width="100%"
   height="100%"
   viewBox="0 0 1920 2674"
   version="1.1"
   id="svg54"
   sodipodi:docname="about_us_bg.svg"
   inkscape:version="0.92.4 (5da689c313, 2019-01-14)">
  <metadata
     id="metadata58">
    <rdf:RDF>
      <cc:Work
         rdf:about="">
        <dc:format>image/svg+xml</dc:format>
        <dc:type
           rdf:resource="http://purl.org/dc/dcmitype/StillImage" />
      </cc:Work>
    </rdf:RDF>
  </metadata>
  <sodipodi:namedview
     pagecolor="#ffffff"
     bordercolor="#666666"
     borderopacity="1"
     objecttolerance="10"
     gridtolerance="10"
     guidetolerance="10"
     inkscape:pageopacity="0"
     inkscape:pageshadow="2"
     inkscape:window-width="1920"
     inkscape:window-height="1054"
     id="namedview56"
     showgrid="false"
     inkscape:zoom="0.99851728"
     inkscape:cx="1231.4392"
     inkscape:cy="1084.3111"
     inkscape:window-x="0"
     inkscape:window-y="0"
     inkscape:window-maximized="1"
     inkscape:current-layer="Web_1920_22-full" />
  <defs
     id="defs38">
    <filter
       id="Path_284"
       x="-539.241"
       y="-666.345"
       width="2651.216"
       height="1727.845"
       filterUnits="userSpaceOnUse">
      <feOffset
         dy="3"
         input="SourceAlpha"
         id="feOffset2" />
      <feGaussianBlur
         stdDeviation="19.5"
         result="blur"
         id="feGaussianBlur4" />
      <feFlood
         flood-color="#16224f"
         flood-opacity="0.471"
         id="feFlood6" />
      <feComposite
         operator="in"
         in2="blur"
         id="feComposite8"
         result="result1" />
      <feComposite
         in="SourceGraphic"
         in2="result1"
         id="feComposite10" />
    </filter>
    <filter
       id="Path_531"
       x="-517.706"
       y="716.182"
       width="2115.206"
       height="1387.136"
       filterUnits="userSpaceOnUse">
      <feOffset
         dy="3"
         input="SourceAlpha"
         id="feOffset13" />
      <feGaussianBlur
         stdDeviation="19.5"
         result="blur-2"
         id="feGaussianBlur15" />
      <feFlood
         flood-color="#16224f"
         flood-opacity="0.471"
         id="feFlood17" />
      <feComposite
         operator="in"
         in2="blur-2"
         id="feComposite19"
         result="result1" />
      <feComposite
         in="SourceGraphic"
         in2="result1"
         id="feComposite21" />
    </filter>
    <filter
       id="Path_532"
       x="737.949"
       y="1809.393"
       width="2387.896"
       height="1888.714"
       filterUnits="userSpaceOnUse">
      <feOffset
         dy="3"
         input="SourceAlpha"
         id="feOffset24" />
      <feGaussianBlur
         stdDeviation="19.5"
         result="blur-3"
         id="feGaussianBlur26" />
      <feFlood
         flood-color="#16224f"
         flood-opacity="0.471"
         id="feFlood28" />
      <feComposite
         operator="in"
         in2="blur-3"
         id="feComposite30"
         result="result1" />
      <feComposite
         in="SourceGraphic"
         in2="result1"
         id="feComposite32" />
    </filter>
    <clipPath
       id="clip-Web_1920_22-full">
      <rect
         width="1920"
         height="2674"
         id="rect35" />
    </clipPath>
  </defs>
  <g
     id="Web_1920_22-full"
     data-name="Web 1920 – 22-full"
     clip-path="url(#clip-Web_1920_22-full)">
    <rect
       width="1920"
       height="2674"
       fill="#fff"
       id="rect40" />
    <rect
       id="Rectangle_19"
       data-name="Rectangle 19"
       width="1920"
       height="1078"
       fill="#fff" />
    <g
       transform="matrix(1, 0, 0, 1, 0, 0)"
       filter="url(#Path_284)"
       id="g44">
      <path
         id="Path_284-2"
         data-name="Path 284"
         d="M-106.2,816.723a563.312,563.312,0,0,1,14.426-61C7.262,417.6,249.556,73.519,657.246-85.132c348.434-135.739,848.891-128.531,1210.7-3.693,380.781,131.334,598.219,427.771,543.179,752.547-48.881,288.517-325.075,467.5-669.07,424.256-104.308-13.347-287.014-59.172-390.1-43.778-254.945,37.994-337.393,266.495-578.3,346.354-273.92,90.8-619.912.979-783.92-191.307C-106.034,1087-129.726,948.457-106.2,816.723Z"
         transform="translate(-366.1 -426.14)"
         fill="#16224f" />
    </g>
    <g
       transform="matrix(1, 0, 0, 1, 0, 0)"
       filter="url(#Path_531)"
       id="g47">
      <path
         id="Path_531-2"
         data-name="Path 531"
         d="M1876.911,295.824a444.092,444.092,0,0,1-11.374,48.095c-78.09,266.607-269.137,537.915-590.6,663.01C1000.2,1113.958,605.6,1108.274,320.317,1009.84,20.075,906.284-151.373,672.547-107.975,416.464-69.433,188.971,148.344,47.844,419.581,81.942c82.246,10.524,226.308,46.656,307.592,34.519C928.194,86.5,993.2-93.668,1183.157-156.636c215.983-71.6,488.8-.772,618.114,150.844C1876.78,82.714,1895.46,191.953,1876.911,295.824Z"
         transform="translate(-344.57 956.38)"
         fill="#92a3e4"
         opacity="0.42" />
    </g>
    <g
       transform="matrix(1, 0, 0, 1, 0, 0)"
       filter="url(#Path_532)"
       id="g50">
      <path
         id="Path_532-2"
         data-name="Path 532"
         d="M1876.911,295.824a444.092,444.092,0,0,1-11.374,48.095c-78.09,266.607-269.137,537.915-590.6,663.01C1000.2,1113.958,605.6,1108.274,320.317,1009.84,20.075,906.284-151.373,672.547-107.975,416.464-69.433,188.971,148.344,47.844,419.581,81.942c82.246,10.524,226.308,46.656,307.592,34.519C928.194,86.5,993.2-93.668,1183.157-156.636c215.983-71.6,488.8-.772,618.114,150.844C1876.78,82.714,1895.46,191.953,1876.911,295.824Z"
         transform="translate(2906.24 2939.88) rotate(164)"
         fill="#d6c315"
         opacity="0.3" />
    </g>
  </g>
</svg>
