<svg xmlns="http://www.w3.org/2000/svg" xmlns:xlink="http://www.w3.org/1999/xlink" width="100%" height="100%" viewBox="0 0 872.781 659.524"><defs><style>.a,.b,.h{fill:#6c63ff;}.a{opacity:0.19;}.b,.g,.o{opacity:0.1;}.c{fill:url(#a);}.d{fill:#d38884;}.e{fill:#444053;}.f{fill:#b07473;}.i{fill:#67647e;}.j{fill:#585268;}.k{fill:#e1e7ef;}.l{fill:url(#b);}.m{fill:#a27772;}.n{fill:#cc818c;}.p{fill:#f6f8fb;}.q{fill:url(#c);}.r{fill:#65617d;}.s{fill:#fbbebe;}.aa,.t{opacity:0.05;}.u{fill:#7c5c5c;}.v{fill:url(#d);}.w{fill:#fdc2cc;}.x{fill:#d39999;}.y{fill:#7e5659;}.z{fill:#865a61;}.ab{fill:url(#e);}.ac{fill:#fff;opacity:0.5;}.ad{fill:#3f2b3b;}.ae{fill:none;stroke:#3f2b3b;stroke-miterlimit:10;}.af{fill:#a8a8a8;}.ag{opacity:0.2;}</style><linearGradient id="a" x1="0.5" y1="1" x2="0.5" gradientUnits="objectBoundingBox"><stop offset="0" stop-color="gray" stop-opacity="0.251"/><stop offset="0.54" stop-color="gray" stop-opacity="0.122"/><stop offset="1" stop-color="gray" stop-opacity="0.102"/></linearGradient><linearGradient id="b" x1="0.5" x2="0.5" y2="0" xlink:href="#a"/><linearGradient id="c" x1="0.5" x2="0.5" y2="0" xlink:href="#a"/><linearGradient id="d" x1="1.096" x2="1.096" y2="0" xlink:href="#a"/><linearGradient id="e" x1="0.5" x2="0.5" y2="0" xlink:href="#a"/></defs><g transform="translate(0.013 -0.004)"><path class="a" d="M43.44,426.65c13.809,53.816,43.045,100.336,89.25,122.882,96.063,46.865,312.576,22.692,474.191-5.048,83.619-14.353,157.066-53.931,210.452-109.7Z" transform="translate(-34.022 -114.795)"/><path class="a" d="M897.741,78.69H809.066c-4.219,0-7.671-3.145-7.671-6.989s3.444-6.989,7.671-6.989h15.343c-4.219,0-7.672-3.145-7.672-6.989s3.445-6.981,7.672-6.981H813.462c-4.219,0-7.671-3.145-7.671-6.989s3.444-6.989,7.671-6.989h46.282a131.126,131.126,0,0,0-36.1-9.068c-126.2-14.783-171.266-5.009-187.185,5.048a185.735,185.735,0,0,1-64.863,25.922C493.729,73.312,348.108,90.934,216.12,53.021c-65.6-18.834-114.352,13.042-143.58,66.213h840.6c-1.1-15.466-4.38-29.75-10.41-42.247A8.04,8.04,0,0,1,897.741,78.69Z" transform="translate(-40.798 -20.14)"/><path class="a" d="M33.052,280.23A325.226,325.226,0,0,0,36.5,374.122l778.566,25.96A332.3,332.3,0,0,0,869.154,324.9Zm307.911,66.98H325.62c4.212,0,7.672,3.145,7.672,6.989s-3.452,6.981-7.672,6.981H236.984c-4.212,0-7.671-3.138-7.671-6.981s3.452-6.989,7.671-6.989h15.343c-4.212,0-7.671-3.145-7.671-6.989s3.452-6.989,7.671-6.989H241.364c-4.212,0-7.672-3.138-7.672-6.981s3.452-6.989,7.672-6.989h88.675c4.219,0,7.671,3.145,7.671,6.989s-3.444,6.981-7.671,6.981h10.924c4.219,0,7.671,3.145,7.671,6.989S345.206,347.21,340.963,347.21Z" transform="translate(-31.16 -80.701)"/><path class="a" d="M904.151,149.94l-850,18.849c-10.357,24.234-17.207,51.629-20.368,80.029H889.253A306.093,306.093,0,0,0,901.6,197.81C904.151,181.117,905.171,164.976,904.151,149.94ZM206.366,211.7H191.023c4.212,0,7.672,3.145,7.672,6.989s-3.452,6.989-7.672,6.989H102.356c-4.212,0-7.672-3.145-7.672-6.989s3.452-6.989,7.672-6.989H117.7c-4.212,0-7.672-3.138-7.672-6.981s3.452-6.989,7.672-6.989H106.736c-4.212,0-7.672-3.145-7.672-6.989s3.452-6.989,7.672-6.989h88.675c4.219,0,7.671,3.145,7.671,6.989s-3.444,6.989-7.671,6.989h10.955c4.212,0,7.671,3.145,7.671,6.989S210.578,211.7,206.366,211.7Z" transform="translate(-31.773 -50.363)"/><ellipse class="b" cx="57.713" cy="12.957" rx="57.713" ry="12.957" transform="translate(451.933 562.361)"/><ellipse class="b" cx="104.118" cy="8.546" rx="104.118" ry="8.546" transform="translate(539.634 607.922)"/><ellipse class="b" cx="104.118" cy="12.957" rx="104.118" ry="12.957" transform="translate(121.59 590.554)"/><ellipse class="b" cx="78.341" cy="12.957" rx="78.341" ry="12.957" transform="translate(306.113 525.691)"/><ellipse class="b" cx="62.715" cy="12.957" rx="62.715" ry="12.957" transform="translate(343.612 633.614)"/><path class="c" d="M562.733,278.288c-1.657-11.154-11.791-37.184-11.791-37.184h0q-.265-1.151-.6-2.3c-7.188-24.7-17.138-26.85-17.138-26.85l-35.642-7.671a2.762,2.762,0,0,1,.767.713,4.949,4.949,0,0,0-.56.084,13.962,13.962,0,0,1-3.122-6.751c-.069-.368-.13-.767-.176-1.143a25.071,25.071,0,0,0-2.041-37.69c-.376-.292-.767-.575-1.143-.844,1.68-1.787,1.734-4.273.476-6.759-2.808-5.83-8.914-9.52-15.19-11.323-4.795-1.373-9.973-1.818-14.745-.315a53.263,53.263,0,0,0-7.718,3.583c-4.733,2.363-9.973,4.235-13.51,8.124a3.965,3.965,0,0,0-1.35,3.26,8.8,8.8,0,0,0,1.343,2.371,7.154,7.154,0,0,1,.069,5.938,57.548,57.548,0,0,0-2.2,5.708c-.483,1.979-.3,4.311,1.189,5.731a25.221,25.221,0,0,0,2.225,1.534A11.668,11.668,0,0,1,444,178.888q2.117,2.838,4.219,5.7a58.715,58.715,0,0,1,5.286,8.032,39.146,39.146,0,0,0,3.268,6.137,9.1,9.1,0,0,0,1.4,1.473l-.414-.161a6.391,6.391,0,0,0,4.687,1.91h.215a1.289,1.289,0,0,0,.859-.353v.767c.084,2.739.069,5.654-.123,8.393l-.33-.169a2.877,2.877,0,0,0-3.069.322l-32.811,26.329s-7.135,9.758-6.137,26.6L415.3,289.136s-7.188,21.434-1.657,36.739,8.738,24.058,8.738,24.058,2.209,17.391,5.531,18.811,4.756,2.186,4.756,2.186l.66,4.158h0s.222.407.614,1.089c2.417,4.2,11.369,19.041,16.57,17.453a66.5,66.5,0,0,1,.844,12.19l5.148,34.56s3.59,9.4,3.368,14.323,4.189,11.945,4.189,11.945a22.823,22.823,0,0,0-2.209,16.072c2.1,9.206,4.756,51.614,4.756,51.614l3.836,10.28-.107,12.052a11.507,11.507,0,0,1-2.378,5.37c-2.486,2.7-2.3,5.823-8.293,9.513s-9.789,5.086-9.789,9.973a12.826,12.826,0,0,1-.184,2.033c-.552,3.59-1.626,5.539,9.39,6.582a29.045,29.045,0,0,0,21.572-7.211s1.9-3.452,10.863-4.848c0,0,3.069-.161,3.23-2.869.061-.936.046-2.723,0-4.695-.146-3.751-.506-8.132-.982-8.347-.6-.268-1.642-4.043-2-5.408h2.493s2.3-17.391,0-28.653-.222-19.248-.222-19.248l-.445-29.742s-3.069-3.283-.66-9.083,0-34.445,0-34.445.89-10.28,3.429-12.689.123-15.059,0-15.719l4.526,15.182s1.987,30.18,6.2,35.642l1.212,13.671s8.623,12.581,6.966,19.355,1.772,31.277,1.772,31.277v25.048s-3.874,10.057,1.534,13.671l2.3-.092c-.767.714-1.358,1.787-2.255,2.716-1.036,1.066-1.626,5.125-1.956,8.615-.276,2.954-.368,5.493-.368,5.493a9.045,9.045,0,0,0,6.636,3.935c4.334.253,18.619,11.116,18.619,11.116s14.108,0,17.76-.767l.215-.054a4.8,4.8,0,0,0,2.754-2.248,5.754,5.754,0,0,0,.66-4.135c-.453-2.156-2.163-4.519-5.953-6.529-9.428-4.971-10.832-9.628-10.832-9.628l-6.191-9.29h.882s-.545-9.843,6.191-20.89l-.437-48.66s2.762-16.732-1.987-25.815c0,0-.391-9.62,2.785-12.574s-4.227-32.8-4.227-32.8-1.534-16.026-3.337-30.648h0c7.464,7.081,15.2-18.412,16.509-22.945h.192l-.084-.33c.054-.215.084-.322.084-.322h0s-1.657-5.892-.445-4.695,4.2-3.283,4.2-3.283-.445-24.388,4.756-36.677S562.733,278.288,562.733,278.288Zm-22.247,15.52.038-.069c.767,14.89-.146,46.666-.146,46.666s-1.028,4.074-2.125,8.868l-.767-30.187h0l-.767-28.438Zm-95.211-10.264s3.759,47.019,0,53.8c-1.066,1.933-1.964,5.37-2.708,9.29-1.243-3.26-3.874-10.917-2.931-14.975,1.22-5.247-2.432-19.033-2.432-19.355s-.33-7.672,2.3-13.287.905-8.047.905-8.047S442.62,281.763,445.275,283.543Z" transform="translate(-119.737 -47.889)"/><path class="d" d="M461.419,458.267c-3.276,14.4-16.3-7.372-19.271-12.6-.384-.683-.6-1.082-.6-1.082l1.412-6.62,7.464-3.069a20.851,20.851,0,0,1,3.345,2.179C457.86,440.293,463.943,447.113,461.419,458.267Z" transform="translate(-126.722 -116.716)"/><path class="d" d="M592.664,433.53a1.007,1.007,0,0,1-.084.322,1.632,1.632,0,0,1-.1.345c-1.281,4.5-8.876,29.8-16.21,22.777-8.024-7.672-4.127-25.408-4.127-25.408h.054l16.877-1.726,3.345,3.437h0Z" transform="translate(-156.91 -115.537)"/><path class="e" d="M555.115,558.668l.43,48.331c-6.621,10.97-6.076,20.713-6.076,20.713l-21.818.859c-5.324-3.583-1.534-13.563-1.534-13.563V590.122s-3.368-24.311-1.741-31.047S517.54,539.9,517.54,539.9l-1.2-13.571c-4.127-5.424-6.084-35.381-6.084-35.381l-4.426-15.128c.123.652,2.424,13.279,0,15.6s-3.368,12.589-3.368,12.589,2.386,28.446,0,34.192.644,9.014.644,9.014l.437,29.528s-2.064,7.925.215,19.1,0,28.446,0,28.446H480.357l.107-12.052-3.79-10.2S474.066,559.919,472,550.8a22.891,22.891,0,0,1,2.163-15.957s-4.334-6.943-4.12-11.829S466.7,508.8,466.7,508.8l-5.048-34.3a66.633,66.633,0,0,0-2.5-19.539c-2.93-9.774-7.273-22.585-7.273-22.585l4.9.437,24.733,2.2s60.137-4.043,62.83-.683a11.288,11.288,0,0,1,1.135,3.506c2.7,12.129,6.268,50.126,6.268,50.126s7.273,29.635,4.15,32.565-2.739,12.474-2.739,12.474C557.839,542.021,555.115,558.668,555.115,558.668Z" transform="translate(-129.127 -116.129)"/><path class="f" d="M506.666,699.452c-.169,2.693-3.168,2.854-3.168,2.854-8.792,1.381-10.663,4.8-10.663,4.8a28.237,28.237,0,0,1-21.166,7.165c-10.817-1.043-9.766-2.969-9.206-6.536a13.515,13.515,0,0,0,.176-2.01c0-4.887,3.744-6.275,9.6-9.973s5.7-6.759,8.139-9.444,2.693-7.894,2.693-7.894c2.762-4.81,9.766.767,9.766.767.33,1.7,10.74,1.465,10.74,1.465s1.381,5.539,2.094,5.861c.468.215.821,4.557.959,8.285C506.712,696.751,506.728,698.523,506.666,699.452Z" transform="translate(-131.517 -172.963)"/><path class="g" d="M506.666,705.021c-.169,2.693-3.168,2.854-3.168,2.854-8.792,1.381-10.663,4.8-10.663,4.8a28.237,28.237,0,0,1-21.166,7.165c-10.817-1.043-9.766-2.969-9.206-6.536,4.833,1.2,14.07,2.869,19.463-.062,7.5-4.066,12.873-6.9,12.873-6.9l11.845-5.961C506.712,702.321,506.728,704.093,506.666,705.021Z" transform="translate(-131.517 -178.532)"/><path class="f" d="M592.865,714.886a4.68,4.68,0,0,1-2.7,2.232l-.207.054c-3.583.767-17.43.767-17.43.767s-14-10.824-18.235-11.07a8.9,8.9,0,0,1-6.513-3.912s.084-2.516.353-5.447c.33-3.467.905-7.5,1.926-8.554,1.872-1.956,2.3-4.6,6.513-2.931,0,0,6.014-10.6,13.1-2.409l7.334,11.124s1.381,4.6,10.671,9.6c3.713,1.995,5.37,4.342,5.838,6.482A5.715,5.715,0,0,1,592.865,714.886Z" transform="translate(-151.458 -173.906)"/><path class="g" d="M592.865,720.046c-.829.7-1.741,1.45-2.7,2.232l-.207.054c-3.583.767-17.43.767-17.43.767s-14-10.824-18.235-11.07a8.9,8.9,0,0,1-6.513-3.912s.084-2.516.353-5.447c4.311,1.289,10.84,3.567,12.589,6.022,2.685,3.736,10.84,8.953,10.84,8.953s15.205-1.465,21.956-1.665A5.715,5.715,0,0,1,592.865,720.046Z" transform="translate(-151.458 -179.066)"/><path class="d" d="M517.112,223.8,497.09,244.967s-24.265-1.787-20.03-8.953c2.156-3.652,2.493-11.292,2.3-17.936-.176-6.406-.836-11.86-.836-11.86s34.031-16.939,31.453-1.143a26,26,0,0,0-.092,9.014C511.336,222.068,517.112,223.8,517.112,223.8Z" transform="translate(-134.875 -61.633)"/><path class="g" d="M510.542,205.076a26,26,0,0,0-.092,9.014,24.978,24.978,0,0,1-17.813,7.434c-4.6,0-9.582-3.782-13.3-5.968-.176-6.413-.215-9.336-.215-9.336S513.151,189.28,510.542,205.076Z" transform="translate(-135.47 -61.633)"/><path class="d" d="M514.2,186.561a25.078,25.078,0,1,1-9.436-19.593A25.078,25.078,0,0,1,514.2,186.561Z" transform="translate(-131.958 -53.053)"/><path class="g" d="M546.633,437.97c-6.245,14.86-46.413,15.167-46.413,15.167v-16.2l-2.432-.161c1.051,4.641-1.473,15.957-1.473,15.957-31.745,4.48-39.485-13.609-39.485-13.609l1.1-6.191,24.733,2.2s60.137-4.043,62.83-.683A11.282,11.282,0,0,1,546.633,437.97Z" transform="translate(-130.28 -116.257)"/><path class="h" d="M500.22,403.365v-16.2l-2.432-.154c1.051,4.6-1.473,15.957-1.473,15.957-23.889,3.368-34.184-6.037-37.813-10.9a14.846,14.846,0,0,1-1.672-2.7l9.7-54.544,2.3-80.275,3.475-14.085.805-6.759v-.077h.084l2.47,1.059,14.783,6.39,16.793-12.681.246-.176.836-.637,1.389,1.112,3.452,2.769,11.07,71.491S543.411,358,547,380.212c.146.89.261,1.718.353,2.493C549.724,402.989,500.22,403.365,500.22,403.365Z" transform="translate(-130.28 -68.441)"/><circle class="i" cx="1.427" cy="1.427" r="1.427" transform="translate(360.535 172.786)"/><circle class="i" cx="1.427" cy="1.427" r="1.427" transform="translate(361.195 185.813)"/><circle class="i" cx="1.427" cy="1.427" r="1.427" transform="translate(362.622 206.902)"/><circle class="i" cx="1.427" cy="1.427" r="1.427" transform="translate(364.977 229.617)"/><circle class="i" cx="1.427" cy="1.427" r="1.427" transform="translate(366.404 250.944)"/><circle class="i" cx="1.427" cy="1.427" r="1.427" transform="translate(367.831 273.659)"/><circle class="i" cx="1.427" cy="1.427" r="1.427" transform="translate(367.263 296.129)"/><path class="g" d="M474.058,344.519s-1.6,20.89-4.526,26.965-4.235,23.122-4.235,23.122l-6.8-.767a14.843,14.843,0,0,1-1.672-2.7l9.7-54.544,2.3-80.275,3.483-14.092.805-6.759.092-.038a2.746,2.746,0,0,1,2.424.038l.322.169q-.146.414-.276.852c-2.654,8.308-3.644,23.621-3.644,23.621s3.836,28.009,4.235,41.035S474.058,344.519,474.058,344.519Z" transform="translate(-130.278 -70.208)"/><path class="g" d="M453.771,437.1a3.937,3.937,0,0,1-.261.506c-2.639,4.457-9.329,7.288-11.362,8.063-.384-.683-.6-1.082-.6-1.082l1.412-6.621,7.464-3.069A20.856,20.856,0,0,1,453.771,437.1Z" transform="translate(-126.722 -116.716)"/><path class="i" d="M429.2,298.81l-6.191,3.69-5.639,25.078s-7.058,21.273-1.634,36.47,8.577,23.9,8.577,23.9,2.171,17.261,5.431,18.672,4.664,2.171,4.664,2.171l.652,4.127s8.838-3,11.96-8.285-2.3-18.412-2.3-18.412-4.664-11.185-3.467-16.394-2.393-18.887-2.393-19.179-.322-7.6,2.3-13.2.875-7.978.875-7.978L440.4,313.516Z" transform="translate(-120.234 -85.027)"/><path class="g" d="M562.326,385.625s-16.394,6.183-21.6.767-4.672-30.832-4.672-30.832-4.986-46.9-8.139-54.6-1.534-63.29-1.534-63.29-2.117-7.188-3.966-9.068a2.012,2.012,0,0,0-.391-.315l.637.138,2.225.476,3.452,2.769,11.07,71.491s19.179,55.043,22.769,77.26Z" transform="translate(-145.459 -68.607)"/><path class="g" d="M592.947,434.177h-.184c-2.064.269-20.276,2.47-20.353-1.319a11.108,11.108,0,0,1,.069-1.312l16.877-1.726,3.345,3.437h0c.061.222.107.414.153.568Z" transform="translate(-157.193 -115.533)"/><path class="i" d="M575.471,266.07l11.967,6.245s9.973,25.822,11.569,36.892c0,0,7.388,29.658,2.3,41.856s-4.664,36.409-4.664,36.409-2.931,4.449-4.127,3.26.437,4.664.437,4.664-20.46,2.716-20.544-1.3,4.695-23.229,4.695-23.229,1.3-45.7-.545-52.864S575.471,266.07,575.471,266.07Z" transform="translate(-157.192 -77.404)"/><path class="g" d="M526.885,329.52s-6.736,16.494-8.907,17.583.437,5.424.437,5.424S530.682,335.381,526.885,329.52Z" transform="translate(-144.317 -92.178)"/><path class="g" d="M521.421,254.1c.077-.315-8.032,7.955-10.2,9.206S519.142,263.226,521.421,254.1Z" transform="translate(-142.873 -74.614)"/><path class="g" d="M491.875,327.82s-12.374,8-10.74,11.17S491.875,327.82,491.875,327.82Z" transform="translate(-135.905 -91.782)"/><path class="g" d="M524.47,480.07s10.533,6.774,26.919,8.439Z" transform="translate(-146.03 -127.233)"/><path class="g" d="M491.5,501.3s9.766,12.274,14.223,12.589S491.5,501.3,491.5,501.3Z" transform="translate(-138.353 -132.177)"/><path class="g" d="M505.753,564c-.437.215-5.539,11.07-10.74,11.4S505.753,564,505.753,564Z" transform="translate(-138.928 -146.776)"/><path class="g" d="M568.33,594.9s9.681-2.171,11.837,4.772C580.167,599.651,579.515,597.48,568.33,594.9Z" transform="translate(-156.243 -153.897)"/><path class="g" d="M559.84,646.5s11.73-2.394,14.223.867S559.84,646.5,559.84,646.5Z" transform="translate(-154.266 -165.79)"/><path class="g" d="M513.094,654c0,.107-11.937,2.393-11.507,3.912s12.735,1.3,13.172-1.089A2.3,2.3,0,0,0,513.094,654Z" transform="translate(-140.699 -167.733)"/><path class="g" d="M554.75,667.21s19.616-2.393,18.412,1.734S554.75,667.21,554.75,667.21Z" transform="translate(-153.08 -170.648)"/><path class="g" d="M420.89,352.44c.107.322,12.919,2.064,14.653,6.191,0,0-12.589-5.869-14.576-5.869" transform="translate(-121.911 -97.515)"/><path class="g" d="M441.369,396.16s-10.64,3.368-9.881,8.439S430.407,402.251,441.369,396.16Z" transform="translate(-124.37 -107.695)"/><path class="g" d="M437.92,428.486s3.874-5.316,7.564-4.342S437.92,428.486,437.92,428.486Z" transform="translate(-125.877 -114.183)"/><path class="g" d="M504.771,166.966a6.041,6.041,0,0,1-1.243.928c-3.069,1.787-3.913,4.541-5.37,7.718-1.358,2.907-2.854,5.984-5.593,7.633-3.537,2.133-8.193,1.35-11.868,3.207a9.206,9.206,0,0,0-4.91,9.075,26.19,26.19,0,0,0,1.043,4.158,29.647,29.647,0,0,1,1.12,9.029,1.529,1.529,0,0,1,0,.268,25.071,25.071,0,1,1,26.85-42.017Z" transform="translate(-131.97 -53.051)"/><path class="j" d="M500.319,155c-2.754-5.784-8.746-9.451-14.906-11.239-4.7-1.358-9.812-1.8-14.476-.307a53.1,53.1,0,0,0-7.572,3.552c-4.649,2.347-9.758,4.2-13.256,8.063a4.04,4.04,0,0,0-1.327,3.237,9.04,9.04,0,0,0,1.312,2.348,7.124,7.124,0,0,1,.069,5.9A54.111,54.111,0,0,0,448,172.224c-.476,1.972-.292,4.281,1.166,5.685a21.249,21.249,0,0,0,2.194,1.534,11.547,11.547,0,0,1,2.079,2.363l4.143,5.662a57.428,57.428,0,0,1,5.186,7.971,37.981,37.981,0,0,0,3.207,6.083c1.381,1.833,3.529,3.306,5.815,3.107a1.128,1.128,0,0,0,.921-.437,1.212,1.212,0,0,0,.115-.575,29.441,29.441,0,0,0-1.1-9,25.974,25.974,0,0,1-1.043-4.158,9.244,9.244,0,0,1,4.91-9.075c3.682-1.857,8.339-1.074,11.868-3.2,2.746-1.657,4.242-4.733,5.593-7.671,1.481-3.176,2.3-5.93,5.37-7.718S501.845,158.047,500.319,155Z" transform="translate(-128.169 -48.635)"/><path class="g" d="M501.63,693.06s3.836,4.887,2.839,7.671S501.63,693.06,501.63,693.06Z" transform="translate(-140.712 -176.828)"/><path class="g" d="M569.28,706.967s.852-6.551,4.265-6.613,3.583-.353,6.191.652,5.055,2.562,4.273,2.792-4.488-3.744-8.293-1.711A27.4,27.4,0,0,0,569.28,706.967Z" transform="translate(-156.464 -178.506)"/><path class="g" d="M483.674,251.136l10.74-7.526s-15.711-9.283-17.583-7.978-3.161,13.042-3.161,13.042Z" transform="translate(-134.201 -70.287)"/><path class="k" d="M483.614,250.462l10.74-7.672s-15.711-9.282-17.583-7.978S473.61,248.5,473.61,248.5Z" transform="translate(-134.187 -70.096)"/><path class="h" d="M483.614,250.462l10.74-7.672s-15.711-9.282-17.583-7.978S473.61,248.5,473.61,248.5Z" transform="translate(-134.187 -70.096)"/><path class="i" d="M467.4,234.789l-.322-.161a2.785,2.785,0,0,0-3.015.315l-32.22,26.137s-7,9.689-6.03,26.405l19,26.919s2.171-9.114,4.772-7.38c0,0,3.69,46.681,0,53.409s-5.316,31.913-5.316,31.913l12.482,1.412s1.3-17.046,4.235-23.122,4.526-26.965,4.526-26.965,2.639-30.349,2.2-43.375-4.235-41.035-4.235-41.035S464.545,242.844,467.4,234.789Z" transform="translate(-123.036 -70.012)"/><path class="g" d="M517.827,244.7l-13.387-4.956s17.046-18.672,19.179-8.316Z" transform="translate(-141.366 -68.609)"/><path class="k" d="M517.827,243.852,504.44,238.9s17.046-18.672,19.179-8.316Z" transform="translate(-141.366 -68.411)"/><path class="h" d="M517.827,243.852,504.44,238.9s17.046-18.672,19.179-8.316Z" transform="translate(-141.366 -68.411)"/><path class="g" d="M521.32,228.117a.767.767,0,0,1,.552.123Z" transform="translate(-145.296 -68.564)"/><path class="i" d="M523,226.426l35.519,7.672s9.773,2.171,16.831,26.7-9.666,54.59-9.666,54.59l-3.69-3.138,1.849,71.644s-16.394,6.183-21.6.767-4.664-30.855-4.664-30.855-4.994-46.888-8.147-54.6-1.534-63.282-1.534-63.282S524.995,226,523,226.426Z" transform="translate(-145.688 -68.169)"/><path class="g" d="M565.219,285.842c-.5.46-1.082,22.14,1.089,38.641a210.58,210.58,0,0,0,6.137,29.742l-3.222-66.105S566.738,284.431,565.219,285.842Z" transform="translate(-155.41 -81.933)"/><path class="g" d="M559.7,261.6c.867.545,4.672,9.551,2.93,13.241S559.7,261.6,559.7,261.6Z" transform="translate(-154.233 -76.363)"/><path class="g" d="M505.939,156.308a19.609,19.609,0,0,0-7.81-8.178,18.573,18.573,0,0,1,5.853,6.9c1.534,3.069,1.082,6.137-1.9,7.817s-3.912,4.542-5.37,7.718c-1.358,2.907-2.854,5.984-5.6,7.672-3.529,2.133-8.185,1.342-11.868,3.2a9.267,9.267,0,0,0-4.91,9.083,26.081,26.081,0,0,0,1.051,4.15,29.674,29.674,0,0,1,1.12,9.029,1.211,1.211,0,0,1-.123.575,1.1,1.1,0,0,1-.913.437,5.285,5.285,0,0,1-2.677-.5,6.229,6.229,0,0,0,4.6,1.8.905.905,0,0,0,1.028-1.013,29.443,29.443,0,0,0-1.112-9.029,25.191,25.191,0,0,1-1.051-4.158,9.244,9.244,0,0,1,4.91-9.075c3.682-1.856,8.339-1.074,11.868-3.2,2.746-1.657,4.242-4.733,5.593-7.672,1.481-3.176,2.3-5.93,5.37-7.718S507.473,159.353,505.939,156.308Z" transform="translate(-133.996 -49.941)"/><path class="l" d="M755.481,258c-10.571-.207-19.9-7.672-25.186-16.793a16.877,16.877,0,0,1-2.547-7.188,8.292,8.292,0,0,1,.292-1.718,17.842,17.842,0,0,0,.767-2.631,4.6,4.6,0,0,0,0-1.074s0,0,0-.061a6.347,6.347,0,0,0-2.3-5.163c-1.412-1.327-3.184-2.3-4.657-3.621-4.542-3.989-5.922-10.387-6.007-16.478v-.322c.054-2.608.261-5.224.238-7.833a32.936,32.936,0,0,0-.192-4.434c-.437-3.69-1.841-7.449-4.741-9.8-7.564-6.137-20.284.253-28.116-5.546-1.9-1.419-3.444-3.514-5.754-4.066a9.693,9.693,0,0,0-5.255.713c-5.769,1.9-12.205,4.4-14.461,9.973-1.289,3.2-.928,6.851-2.11,10.088-.767,2.171-2.232,4.035-3.3,6.091a9.535,9.535,0,0,0-1.227,5.086,5.74,5.74,0,0,0,.376,2.708,6.9,6.9,0,0,0,1.88,2.693,8.947,8.947,0,0,1-1.12,1.8c-1.473,1.8-3.736,3.069-5.27,4.864-2.839,3.291-2.731,7.764-1.335,11.63s3.92,7.388,5.662,11.154c.767,1.634,1.35,3.46.575,5.086a14.587,14.587,0,0,1-2.547,2.961,9.306,9.306,0,0,0-2.3,5.14c-17.269,3.943-17.284,17.821-17.284,17.821h0l-9.329,23.459s-1.5,3.951-3.253,9.167l-11.039-1.979,7.671,12.842c-1.45,5.232-2.478,10.08-2.14,12.52,0,0-3.429,16.11,2.67,18.926l13.456,6.053a7.968,7.968,0,0,0,1.864.836l.545.246a1.443,1.443,0,0,0,1.258,0h.184a1.811,1.811,0,0,0,.767-.115,1.534,1.534,0,0,0,.675-.729.233.233,0,0,1,0-.077l4.027-1.166,3.414,4.043c1.534,1.082,3.069,2.018,4.519,2.861l-5.286,52.488s-.851,69.811-3.429,85.721a44.561,44.561,0,0,0-.6,12.643l-.1.169c.637,4.488,2.3,5.37,2.3,5.37v-.061a.508.508,0,0,0,.1.061,45.212,45.212,0,0,1,2.762-5.922v1.151c-.054,5.922-.238,14.215-.852,19.608-1.043,9.206,2.67,39.547,2.67,39.547l1.281,27.617a25.532,25.532,0,0,1-3.145,13.456c-3.069,5.516-6.989,13.279-7.273,16.724a3.445,3.445,0,0,0,0,.56h0l-6.582,7.917s-2.57,3.974,3.237,5.577c3.122.867,8.508,0,12.835-1.02a8.577,8.577,0,0,0,6.651-8.346,29.535,29.535,0,0,1,5.431-10.426l1.082,6.36,7.242,1.8.928-17.43a7.671,7.671,0,0,0,.5-3.069h0c1.427-12.4-3.36-11.285-3.36-11.285a.667.667,0,0,1,.23.43l-.23-.422h0c-2.938-5.8-1.534-15.343-1.534-15.343s3.836-27.617,5.148-34.913c.944-5.155.552-22.033.238-31.453a11.221,11.221,0,0,0-.038-1.143c11.231-.146,24.994-.522,34.652-1.458V512l-1.78,65.246a35.817,35.817,0,0,1-2.5,12.136.664.664,0,0,1-.084.222,52.931,52.931,0,0,0-3.537,17.1l-.829,20.713v.575h0c-1.442.552-3.721,2.156-3.782,6.8-.1,6.812,11.906,4.541,11.906,4.541,12,0,12.1-12.489,12.1-12.489s.376-11.454.951-19.117-1.81-5.976-1.81-5.976l-.184,21.8V604.614l.184-2.769v-.077h0v-.591l1.511-22.485s11.055-37.468,12.765-44.656c1.22-5.109.714-20.5.315-29.006a6.768,6.768,0,0,0-.061-1.128c3.429-.307,6.459-.338,7.672-.338h.56s-.568-60.175-2-82.852-3.713-43.428-9.428-49.673c-3.452-3.774-8.262-15.427-11.507-24.058a120.352,120.352,0,0,0,21.15,6.9c18.1,3.79,15.619-11.922,15.619-11.922L745.1,312.253h.123a151.481,151.481,0,0,0-1.995-23.229,68.339,68.339,0,0,0-4.664-16.877c1.964-.767,3.9-1.588,5.807-2.432,4.917-2.171,10.456-5.247,11.162-10.548H755.3A6.842,6.842,0,0,0,755.481,258ZM643.3,300.96h0c.038,3.069-.077,8.393-.261,14.277l-5.746-7.672,5.761-9.344ZM720.292,316.541Zm2.394,11.607-9.574-3.069a42.956,42.956,0,0,1,5.915-7.319l.828-.767-.3.061.46-.422.276-.061-.437.422.522-.107a16.332,16.332,0,0,0,3.26,6.559c3.437,3.751-.944,4.7-.944,4.7Z" transform="translate(-165 -55.294)"/><path class="m" d="M648.186,715.66l-1.12,21.235-7.142-1.787-1.5-8.83Z" transform="translate(-148.659 -166.64)"/><path class="g" d="M648.186,715.66l-1.12,21.235-7.142-1.787-1.5-8.83Z" transform="translate(-148.659 -166.64)"/><path class="n" d="M716.48,726.029l10.893,2.255,8.078-7.134V701.043l.184-2.746v-.084h0v-.583l1.5-22.347s10.9-37.2,12.6-44.341c1.2-5.063.7-20.345.3-28.791-.161-3.46-.3-5.777-.3-5.777l-24.05-5.823-.506,18.488-1.757,64.778a35.9,35.9,0,0,1-2.463,12.052l-.084.223a52.721,52.721,0,0,0-3.49,16.969l-.813,20.6v.568Z" transform="translate(-190.739 -152.959)"/><path class="g" d="M741.45,730.145v.568h0v-.583Z" transform="translate(-196.553 -185.46)"/><path class="g" d="M716.48,765.15l10.893,2.255,8.078-7.134V758.56a2.3,2.3,0,0,1-1.158,1.841l-.115.069a21.71,21.71,0,0,1-12.228,2.417l-4.25-.36a3.979,3.979,0,0,0-1.128.276v.568Z" transform="translate(-190.739 -192.08)"/><path class="f" d="M733.065,754.539l.115-.061a2.3,2.3,0,0,0,1.174-1.995l.177-21.641s2.347-1.68,1.78,5.93-.936,18.979-.936,18.979-.092,12.4-11.929,12.4c0,0-11.837,2.255-11.745-4.511s4.887-7.043,4.887-7.043l4.25.368A21.657,21.657,0,0,0,733.065,754.539Z" transform="translate(-189.626 -185.589)"/><path class="n" d="M642.52,723.578c.276,4.887,14.653,2.064,14.653,2.064l9.674-18.78s8.078-6.206,4.035-11.653a8.7,8.7,0,0,1-.591-.928l-.038-.046h0c-.084-.138-.161-.284-.238-.437h0c-2.9-5.754-1.473-15.19-1.473-15.19s3.751-27.433,5.071-34.668c.928-5.109.545-21.871.238-31.246-.123-3.9-.238-6.513-.238-6.513l-23.866-6.39v7.119c-.054,5.884-.238,14.116-.844,19.47-1.028,9.106,2.631,39.263,2.631,39.263l1.266,27.441a25.417,25.417,0,0,1-3.069,13.356c-2.992,5.477-6.9,13.195-7.173,16.609a3.361,3.361,0,0,0-.038.529Z" transform="translate(-173.518 -155.11)"/><path class="g" d="M642.518,752.258c.276,4.887,14.653,2.064,14.653,2.064l9.674-18.78s8.078-6.206,4.035-11.653a8.706,8.706,0,0,1-.591-.928c-.13,2.846-3.253,9.973-3.253,9.973s-7.986,15.98-10.525,19.639-13.571-.683-13.985-.836A3.353,3.353,0,0,0,642.518,752.258Z" transform="translate(-173.516 -183.79)"/><path class="f" d="M667.849,722.292s4.726-1.1,3.314,11.208h0a7.924,7.924,0,0,1-3.736,7.035c-3.383,2.125-8.6,6.7-11.239,15.589h0a8.5,8.5,0,0,1-6.559,8.285c-4.265,1-9.582,1.872-12.658,1.013-5.731-1.6-3.191-5.539-3.191-5.539l6.574-7.8s11.461,4.511,13.993.844,10.525-19.631,10.525-19.631S669.253,723.328,667.849,722.292Z" transform="translate(-171.352 -183.629)"/><path class="g" d="M728.326,593.52l-.506,18.488c6.406-.622,10.993-1.488,11.776-2.708,1.7-2.624,7.848-3.728,13.08-4.181-.161-3.46-.3-5.777-.3-5.777Z" transform="translate(-193.38 -153.65)"/><path class="g" d="M651.94,609.839a8.775,8.775,0,0,1,2.631-3.176c2.532-1.4,2.255,9.022,2.255,9.022s8.439.077,19.217-.061c-.123-3.9-.238-6.521-.238-6.521L651.94,602.72S651.986,605.681,651.94,609.839Z" transform="translate(-175.711 -155.792)"/><path class="e" d="M647.635,562.352s2.823-7.671,5.37-9.037,2.255,9.014,2.255,9.014,62,.568,65.1-4.227,21.135-4.511,21.135-4.511-.56-59.746-1.972-82.285-3.659-43.122-9.3-49.32c-3.644-4.012-8.83-16.992-12.037-25.646-1.741-4.726-2.9-8.17-2.9-8.17l-59.178,3.375-.483,4.795-6.283,62.845s-.844,69.327-3.383,85.108S647.635,562.352,647.635,562.352Z" transform="translate(-174.13 -105.835)"/><g class="o" transform="translate(471.089 282.335)"><path d="M719.665,558.1c3.069-4.787,21.135-4.511,21.135-4.511s-.56-59.746-1.972-82.285-3.659-43.122-9.3-49.32c-3.659-4.027-8.83-16.992-12.037-25.646-1.465-3.974-2.516-7.035-2.808-7.909l4.6-.261s1.159,3.444,2.908,8.17c3.207,8.653,8.385,21.634,12.029,25.646,5.639,6.2,7.894,26.773,9.3,49.32s1.979,82.285,1.979,82.285-18.036-.276-21.143,4.511c-2.647,4.089-48.269,4.281-61.51,4.242C679.842,562.306,717.272,561.8,719.665,558.1Z" transform="translate(-649.341 -388.17)"/><path d="M648.209,603.4c1.143-.637,1.711,1.128,1.995,3.268a44.243,44.243,0,0,0-2.662,5.769s-1.634-.882-2.3-5.37C646.176,605.464,647.212,603.952,648.209,603.4Z" transform="translate(-645.24 -438.255)"/></g><path class="j" d="M668.648,197.167c-4.1,5.585.046,13.525-4.35,18.956-1.45,1.8-3.682,3.069-5.194,4.833-2.8,3.268-2.693,7.71-1.319,11.546s3.836,7.334,5.585,11.078c.767,1.619,1.335,3.437.568,5.048a14.3,14.3,0,0,1-2.516,2.938c-2.823,3.153-2.9,7.533-1.381,11.246s4.419,6.9,7.28,10.05c1.128,1.235,2.555,2.6,4.434,2.562a6.136,6.136,0,0,0,2.785-.913,28.385,28.385,0,0,0,12.919-37.046c-2.378-5.7-6.344-11.162-6.383-17.184,0-4.779,2.455-9.344,2.892-14.1.529-5.784-2.892-14.967-9.873-17.491C674.555,192.4,670.727,194.3,668.648,197.167Z" transform="translate(-176.853 -59.386)"/><path class="g" d="M668.648,197.167c-4.1,5.585.046,13.525-4.35,18.956-1.45,1.8-3.682,3.069-5.194,4.833-2.8,3.268-2.693,7.71-1.319,11.546s3.836,7.334,5.585,11.078c.767,1.619,1.335,3.437.568,5.048a14.3,14.3,0,0,1-2.516,2.938c-2.823,3.153-2.9,7.533-1.381,11.246s4.419,6.9,7.28,10.05c1.128,1.235,2.555,2.6,4.434,2.562a6.136,6.136,0,0,0,2.785-.913,28.385,28.385,0,0,0,12.919-37.046c-2.378-5.7-6.344-11.162-6.383-17.184,0-4.779,2.455-9.344,2.892-14.1.529-5.784-2.892-14.967-9.873-17.491C674.555,192.4,670.727,194.3,668.648,197.167Z" transform="translate(-176.853 -59.386)"/><path class="g" d="M717.805,464.55c-8.2.43-15.918,3.958-23.1,7.948s-14.131,8.508-21.856,11.339" transform="translate(-180.58 -123.62)"/><path class="g" d="M713.126,489.74A33.808,33.808,0,0,0,691.837,500.1c-1.995,2.11-3.713,4.472-5.792,6.5a25.729,25.729,0,0,1-11.415,6.467" transform="translate(-180.994 -129.485)"/><path class="g" d="M712.91,508.91a37.221,37.221,0,0,0-17.123,10.326c-1.258,1.358-2.4,2.808-3.659,4.166-6.789,7.288-16.379,11.154-25.638,14.814" transform="translate(-179.099 -133.949)"/><path class="n" d="M716.21,242.94a168.347,168.347,0,0,0,1.688,19.578c.767,4.6,1.841,8.745,3.383,10.579,4.511,5.37-21.979,12.543-21.979,12.543L683.66,273.518s12.4-11.415,6.62-22.547S716.21,242.94,716.21,242.94Z" transform="translate(-183.097 -71.925)"/><path class="g" d="M658.79,396.34h62.561c-1.741-4.726-2.9-8.17-2.9-8.17l-59.178,3.375Z" transform="translate(-177.306 -105.835)"/><path class="h" d="M649.833,368.218h66.888c-1.88-6.728,0-12.95,2.677-17.737a39.2,39.2,0,0,1,7-9.083l.46-.422,23.352-5.171,1.258-.276s.192-42.462-14.844-48.292a87.906,87.906,0,0,1-24.05-13.709l-20.659,6.383L676.7,272.24c-4.887,5.255-17.852,3.191-17.852,3.191-21.227,2.44-21.227,18.412-21.227,18.412s12.4,28.929,13.341,28.929S649.833,368.218,649.833,368.218Z" transform="translate(-172.377 -78.84)"/><path class="g" d="M678.091,359.638s-13.64-3.023-18.281-8.308" transform="translate(-177.544 -97.256)"/><path class="g" d="M768.489,341.51,752.67,354.475a26.937,26.937,0,0,0,.522,3.069l.46-.422L777,351.951Z" transform="translate(-199.166 -94.97)"/><path class="g" d="M717.46,385.882s3.46,1.949,8.761,4.511h9.091c-1.88-6.728,0-12.95,2.677-17.737l-16.026-5.186C727.418,372.541,717.46,385.882,717.46,385.882Z" transform="translate(-190.967 -101.015)"/><path class="h" d="M641.3,293.76l-9.39,5.071-9.206,23.3s-9.582,25.546-8.646,32.312c0,0-3.376,15.972,2.631,18.788l15.65,7.088a1.458,1.458,0,0,0,1.88-2.01c-2.232-4.227-4.687-10.84-.767-14.476l-4.511-9.39,16.3-26.682,5.447-9.206Z" transform="translate(-166.671 -83.851)"/><path class="g" d="M677.053,353.245c.813,3.314,3.56,8.439,12.65,10.349l9.973,8.17,10.61,4.81,4.327,1.956,1.833-13.249-4.166-2.3-4.856-2.654s-10.955-19.846-28.3-11.507a3.835,3.835,0,0,0-2.071,4.426Z" transform="translate(-181.53 -96.195)"/><path class="n" d="M677.8,351.789c.813,3.322,3.552,8.439,12.643,10.349l9.973,8.17,10.617,4.81,4.319,1.956,1.833-13.249-4.166-2.3-4.818-2.631s-10.963-19.846-28.308-11.469A3.836,3.836,0,0,0,677.8,351.789Z" transform="translate(-181.707 -95.867)"/><circle class="g" cx="24.234" cy="24.234" r="24.234" transform="translate(491.403 139.73)"/><circle class="n" cx="24.234" cy="24.234" r="24.234" transform="translate(491.403 139.17)"/><path class="g" d="M720.668,293.125l-7.288-14.162s10.663-4.311,11.438-9.306,10.219,5.853,8.178,9.451S720.668,293.125,720.668,293.125Z" transform="translate(-190.017 -77.938)"/><path class="h" d="M720.668,291.655l-7.288-14.162s10.663-4.311,11.438-9.306,10.219,5.861,8.178,9.451S720.668,291.655,720.668,291.655Z" transform="translate(-190.017 -77.596)"/><path class="p" d="M636.31,345.263,676.577,399.4s-14.844,8.078-35.289-6.383l-8.83-10.525L607.25,340Z" transform="translate(-165.305 -94.618)"/><path class="n" d="M634.514,381l3.667-.1s22.4-21.741,27.9-10.74-13.955,21.281-13.955,21.281l-5.915,3.191-7.71,2.3-4.933-6.62Z" transform="translate(-171.434 -100.917)"/><path class="g" d="M638.382,396.275a5.473,5.473,0,0,1,.092,3.79,1.534,1.534,0,0,1-.667.729,1.711,1.711,0,0,1-.767.107,7.711,7.711,0,0,1-5.056-2.5,23.092,23.092,0,0,1-3.276-4.741c-1-1.741-2.033-3.667-1.68-5.646.4-2.156,2.3-3.652,4.166-4.864,3.713-2.455,3.836.407,4.649,3.567S637.531,393.084,638.382,396.275Z" transform="translate(-169.894 -104.45)"/><path class="h" d="M637.652,396.275a5.518,5.518,0,0,1,.092,3.79,1.534,1.534,0,0,1-.667.729,1.726,1.726,0,0,1-.767.107,7.672,7.672,0,0,1-5.056-2.5,22.824,22.824,0,0,1-3.283-4.741c-1-1.741-2.033-3.667-1.672-5.646.391-2.156,2.3-3.652,4.158-4.864,3.721-2.455,3.836.407,4.657,3.567S636.792,393.084,637.652,396.275Z" transform="translate(-169.723 -104.45)"/><path class="g" d="M623.85,316.978l1.872-3.168-1.634,5.884Z" transform="translate(-145.266 -73.069)"/><path class="g" d="M721.19,380.024l4.319,1.956,1.834-13.249-4.166-2.3C726.054,369.729,723.537,375.828,721.19,380.024Z" transform="translate(-191.836 -100.772)"/><path class="g" d="M737.759,363.2s-13.947.852-19.869-2.954" transform="translate(-191.067 -99.333)"/><g class="o" transform="translate(485.581 194.504)"><path d="M739.644,352.343a39.268,39.268,0,0,1,7-9.091,18.72,18.72,0,0,1,2.064-1.12l21.741-4.465,1.258-.276s.192-42.462-14.837-48.292a90.309,90.309,0,0,1-23.444-13.2l1.649-.506A87.676,87.676,0,0,0,759.13,289.1c15.036,5.823,14.837,48.292,14.837,48.292h-2.255l-22.247,4.258s-.959.928-1.251,1.2a43.116,43.116,0,0,0-7.111,9.405,23.583,23.583,0,0,0-1.864,17.829h-2.3C735.079,363.352,737,357.13,739.644,352.343Z" transform="translate(-680.267 -274.078)"/><path d="M664.13,277.956c.36-.054.706-.107,1.082-.146a38.9,38.9,0,0,0,4.6.376A41.843,41.843,0,0,1,664.13,277.956Z" transform="translate(-664.13 -274.642)"/><path d="M701.523,281.374l-13.763-6.966a7.286,7.286,0,0,0,.767-.729l14.361,7.265Z" transform="translate(-669.632 -273.68)"/></g><path class="h" d="M761,340l9.206,11.277,1.88,30.625s2.44,15.589-15.4,11.829-38.5-15.374-38.5-15.374,9.973-13.341,4.511-18.412l25.554,8.27s4.319-.944.936-4.695S745.209,353,745.209,353Z" transform="translate(-191.137 -94.618)"/><path class="g" d="M779.42,382.17l5.071,5.823a7.311,7.311,0,0,1-5.071-5.823Z" transform="translate(-205.395 -104.437)"/><path class="g" d="M736.99,360.8l7.894,10.142-3.943.944Z" transform="translate(-171.61 -84.011)"/><path class="g" d="M665.459,208.486c-.867-2.125-.2-4.6.844-6.605s2.478-3.9,3.26-6.053c1.158-3.207.806-6.835,2.071-9.973,2.232-5.562,8.577-8.047,14.261-9.973a9.588,9.588,0,0,1,5.186-.706c2.3.545,3.8,2.631,5.677,4.035,7.718,5.754,20.268-.583,27.732,5.508,2.854,2.3,4.242,6.068,4.672,9.727s0,7.372-.046,11.062c-.123,6.459,1.089,13.525,5.922,17.806,1.458,1.289,3.176,2.255,4.6,3.59a6.286,6.286,0,0,1,2.3,5.132,17.813,17.813,0,0,1-.767,2.608c-.959,3.368.476,6.9,2.225,9.973,5.217,9.029,14.415,16.471,24.84,16.678-.7,5.263-6.137,8.316-11.009,10.472-6.137,2.754-12.673,5.454-19.432,5.109s-13.809-4.672-14.99-11.331c-.407-2.3-.353-5.071-2.3-6.268-1.2-.729-2.747-.545-4.035-1.089-1.864-.767-2.785-2.861-3.4-4.787a43.084,43.084,0,0,1-2-12.274c-.084-4.94.568-10.334-2.233-14.4-2.593-3.767-7.2-5.677-10.188-9.137-2.762-3.207-5.761-7.073-10.288-7.672C682.106,209.039,669.157,217.546,665.459,208.486Z" transform="translate(-178.766 -56.206)"/><path class="j" d="M665.459,207.016c-.867-2.125-.2-4.6.844-6.605s2.478-3.9,3.26-6.053c1.158-3.207.806-6.835,2.071-9.973,2.232-5.57,8.577-8.055,14.261-9.973a9.588,9.588,0,0,1,5.186-.706c2.3.545,3.8,2.631,5.677,4.035,7.718,5.754,20.268-.583,27.732,5.508,2.854,2.3,4.242,6.068,4.672,9.735s0,7.365-.046,11.055c-.123,6.459,1.089,13.525,5.922,17.806,1.458,1.289,3.176,2.255,4.6,3.59a6.285,6.285,0,0,1,2.3,5.132,17.812,17.812,0,0,1-.767,2.608c-.959,3.368.476,6.9,2.225,9.973,5.232,9,14.392,16.463,24.817,16.67-.7,5.263-6.137,8.316-11.009,10.479-6.137,2.746-12.673,5.447-19.432,5.1s-13.809-4.672-14.99-11.331c-.406-2.3-.353-5.071-2.3-6.268-1.2-.729-2.747-.545-4.035-1.089-1.864-.767-2.785-2.861-3.4-4.787a43.036,43.036,0,0,1-2-12.274c-.084-4.94.568-10.333-2.233-14.4-2.593-3.767-7.2-5.677-10.188-9.137-2.762-3.207-5.761-7.073-10.287-7.672C682.106,207.569,669.157,216.092,665.459,207.016Z" transform="translate(-178.766 -55.864)"/><path class="g" d="M686.549,291.582,700.442,280.3s-9.513-5.155-10.648-9.551-8.745,2.087-7.971,6.03S686.549,291.582,686.549,291.582Z" transform="translate(-182.656 -78.152)"/><path class="h" d="M687.273,289.374l13.893-11.27s-9.513-5.155-10.6-9.551-8.745,2.087-7.971,6.03S687.273,289.374,687.273,289.374Z" transform="translate(-182.836 -77.639)"/><circle class="g" cx="1.105" cy="1.105" r="1.105" transform="translate(517.77 208.796)"/><circle class="g" cx="1.105" cy="1.105" r="1.105" transform="translate(517.77 214.934)"/><circle class="g" cx="1.105" cy="1.105" r="1.105" transform="translate(517.77 221.063)"/><g class="o" transform="translate(486.469 126.051)"><path d="M672.452,193.886c1.1-3.015.859-6.4,1.887-9.436a10.306,10.306,0,0,0-1.174,2.163c-1.273,3.168-.913,6.8-2.079,9.973l-.077.184A17.522,17.522,0,0,0,672.452,193.886Z" transform="translate(-666.62 -184.45)"/><path d="M758.767,274.951c-6.137,2.746-12.673,5.447-19.432,5.1s-13.809-4.672-14.99-11.323c-.407-2.3-.353-5.079-2.3-6.275-1.2-.729-2.746-.545-4.035-1.089-1.864-.767-2.785-2.861-3.4-4.787a43.045,43.045,0,0,1-2-12.274c-.084-4.933.575-10.326-2.225-14.4-2.6-3.767-7.2-5.669-10.2-9.137-2.762-3.2-5.761-7.073-10.287-7.672-6.206-.844-19.179,7.672-22.846-1.4a7.134,7.134,0,0,1,.238-5.24c-.268.453-.529.905-.767,1.366-1.043,2.041-1.7,4.488-.836,6.613,3.69,9.052,16.64.545,22.846,1.4,4.526.614,7.526,4.488,10.287,7.672,2.992,3.468,7.595,5.37,10.188,9.144,2.808,4.066,2.148,9.459,2.232,14.392a43.036,43.036,0,0,0,2,12.274c.614,1.933,1.534,4,3.4,4.787,1.289.545,2.838.368,4.035,1.089,1.979,1.2,1.926,4,2.3,6.275,1.2,6.651,8.239,10.978,14.99,11.323s13.256-2.347,19.432-5.1c4.45-1.979,9.405-4.718,10.74-9.206C766.009,271.4,762.234,273.409,758.767,274.951Z" transform="translate(-665.288 -189.575)"/></g><path class="q" d="M919.243,326.021c-16.241-9.344-22.378-11.645-22.409-11.645l-.337-.238a13.51,13.51,0,0,1-4.089-5.171,10.734,10.734,0,0,1,0-1.112.452.452,0,0,0,0,.107c.253-4.948,3.774-9.451,7.111-13.379l8.539-10.042a9.9,9.9,0,0,0,2.2-3.483,8.035,8.035,0,0,0,.23-2.14v-.875c-.046-2.493-.115-4.994-.207-7.487-.077-2.179-.637-4.925-2.816-5.37-1.135-.23-2.639.176-3.237-.767a1.865,1.865,0,0,1-.146-1.3.458.458,0,0,0,0,.107v-.123a28.892,28.892,0,0,0,.806-5.132,7,7,0,0,0-.353-2.6c-1.258-3.613-5.608-5.1-9.451-5.784s-8.155-1.266-10.564-4.273a31.254,31.254,0,0,0-2.1-2.892,8.292,8.292,0,0,0-3.928-1.941,22.248,22.248,0,0,0-14.292,1.243c-1.857.829-3.721,1.949-5.761,1.826s-3.928-1.6-6.014-1.949c-3.375-.575-6.605,1.9-8.27,4.841a11.836,11.836,0,0,0-1.534,5.708v.338h0a8.346,8.346,0,0,0,2.194,5.83c1.458,1.534,3.621,2.547,4.227,4.534.245.805.184,1.68.407,2.5a2.229,2.229,0,0,0,.092.3l-.107.146a25.315,25.315,0,0,0-5.37,15.6,25.9,25.9,0,0,0,18.2,24.549c0,.253,0,.506,0,.767a11.037,11.037,0,0,1-3.529,8.592l-23.007,9.19s-13.87-1.649-18.872,18.619a34.566,34.566,0,0,0-.859,10.28c.184,3.069-.238,8.439-3.836,15.4-5.685,11.139-4.388,36.708,7.242,39.24,10.978,2.393,15.274,1.4,15.727,1.281v.445c-.184,4.8-1.926,46.182-8.255,51.184-1.749,1.389-1.427,2.3,0,2.954,0,0,0,.268-.038.767-.192,3.069-1.166,14.576-5.37,21.112-4.917,7.595-4.4,51.4-4.4,51.4L813.706,563s2.064,15.949,0,18.734c-1.849,2.478-4.3,61.479-4.818,74.276h-.215a6.23,6.23,0,0,0-4.971,3.069c-2.716,4.411-12.228,12.566-12.228,12.566-2.064,2.931-9.7,5.738-13.732,7.058a8.536,8.536,0,0,0-1.534.675,8.186,8.186,0,0,0-3.468,3.652,3.92,3.92,0,0,0-.368,3.069c1.028,2.524,22.485,4.3,27.917,1.764,4.265-1.987,21.173-4.6,28.193-5.631a5.784,5.784,0,0,0,5.017-5.017,3.307,3.307,0,0,0-.644-2.509h0c-1.342-1.665-2.025-6.214-2.3-9.206a6.225,6.225,0,0,0,1.58-.936,67.394,67.394,0,0,1,3.836-27.088c5.171-13.671,6.72-38.987,5.431-55.442,0,0,15.765-67.847,28.177-74.176h0c.192.245,6.214,7.971,6.981,31.9.767,24.3,9.559,40.252,9.559,40.252s-3.882,41.265,0,56.708l-5.071,24.357c-.376-.315-.614-.56-.614-.56s.154.675.361,1.757l-.108.522.223.046c.575,3.069,1.427,8.354,1.074,11.507-.2,1.772-.7,4.2-1.036,6.59-.537,3.751-.683,7.388,1.289,8.185,3.237,1.3,22.247,3.069,25.469-1.1a5.976,5.976,0,0,0,.936-6.252,6.326,6.326,0,0,0-.936-1.6s-5.048-8.247-3.621-14.062a4.28,4.28,0,0,0-.606-3.337,171.541,171.541,0,0,1,4.35-27.28c3.237-12.182,10.057-38.895,5.04-56.455h0q-.284-1.036-.644-2.025a75.824,75.824,0,0,1-2.846-29.62,60.371,60.371,0,0,1,0-25.822c3.107-14.177,5.278-28.1,5.278-28.1s1.711-18.734.215-30.218a7.512,7.512,0,0,0-.1-.767l.813-.184s-4.4-19.493-5.945-31.9c-.368-2.931-.844-6.636-1.366-10.594a27.042,27.042,0,0,0,4.212-1.051c13.954-4.81,18.35-48.33,18.35-48.33V356.615S935.529,335.388,919.243,326.021Zm-104,336.2c-.43-.215-.683-.361-.683-.361h0Z" transform="translate(-203.717 -71.296)"/><path class="r" d="M922.249,642.158c6.053,17.407-1.013,45.661-4.3,58.3s-4.289,27.755-4.289,27.755a58.455,58.455,0,0,1-22.2-.506l5.3-25.983c-3.79-15.389,0-56.516,0-56.516s-8.577-15.9-9.336-40.114c-.767-23.835-6.621-31.545-6.8-31.783h0c-12.106,6.306-27.495,73.923-27.495,73.923,1.258,16.394-.261,41.626-5.3,55.235a68.277,68.277,0,0,0-3.782,26.988c-1.764,1.534-4.219,1.749-6.9,1.32-7.2-1.166-15.842-7.372-15.842-7.372s2.769-73.646,4.795-76.439,0-18.672,0-18.672l3.276-25.73s-.506-43.651,4.288-51.215c4.143-6.536,5.094-18.028,5.278-21.043v-.767l7.3-8.745s70.639-5.3,75.948,0c1.3,1.3,2.1,4.258,2.578,7.978,1.458,11.446-.215,30.111-.215,30.111s-2.117,13.878-5.148,28a61.462,61.462,0,0,0,0,25.738A77.041,77.041,0,0,0,922.249,642.158Z" transform="translate(-215.146 -136.168)"/><path class="m" d="M939.046,814.441c-3.153,4.166-21.7,2.4-24.856,1.1-1.926-.767-1.78-4.427-1.258-8.163.33-2.37.813-4.795,1.013-6.559.5-4.542-1.534-13.755-1.534-13.755s4.158,4.419,5.163,0a4.812,4.812,0,0,1,3.606-3.421,9.421,9.421,0,0,1,6.552.407c3.276,1.427,8.738,4.457,7.763,8.554-1.389,5.792,3.529,14.016,3.529,14.016a6.383,6.383,0,0,1,.921,1.58,6.054,6.054,0,0,1-.9,6.237Z" transform="translate(-236.361 -197.827)"/><path class="g" d="M939.1,821.768c-3.153,4.166-21.695,2.4-24.856,1.1-1.926-.767-1.78-4.426-1.258-8.162,1.995.936,5.37,1.711,11.024,1.189a31.1,31.1,0,0,1,3.966-.123,92.218,92.218,0,0,0,12.044-.245A6.053,6.053,0,0,1,939.1,821.768Z" transform="translate(-236.417 -205.154)"/><path class="g" d="M857.927,662.374c1.258,16.394-.261,41.626-5.3,55.235a68.275,68.275,0,0,0-3.782,26.988c-1.765,1.534-4.219,1.749-6.9,1.32,1.534-10.64,8.009-56.485,12.159-92.71,4.733-41.25,26.85-69.627,26.85-69.627l4.411,4.856C873.317,594.758,857.927,662.374,857.927,662.374Z" transform="translate(-219.952 -151.336)"/><path class="s" d="M921.654,331.462,918.586,346.6,903.5,371.952,884.892,364s-25.316-26.49-9.4-30.272a14.086,14.086,0,0,0,5.278-2.347c3.122-2.355,4.1-5.777,4.12-9.129a27.986,27.986,0,0,0-2.562-10.848l32.542-10.218a52.234,52.234,0,0,0-2.3,13.18c-.253,8.868,3.069,13.233,5.746,15.343A9.773,9.773,0,0,0,921.654,331.462Z" transform="translate(-226.542 -85.581)"/><path class="g" d="M918.512,301.19a52.247,52.247,0,0,0-2.3,13.18,24.749,24.749,0,0,1-1.895,2.018,25.746,25.746,0,0,1-25.73,5.869A27.985,27.985,0,0,0,886,311.408Z" transform="translate(-230.212 -85.581)"/><path class="s" d="M917.626,287.95a25.615,25.615,0,1,1-7.5-18.23,25.738,25.738,0,0,1,7.5,18.23Z" transform="translate(-225.59 -76.507)"/><path class="g" d="M921.654,340.112l-3.069,15.136L903.5,380.6l-18.6-7.948s-25.316-26.49-9.4-30.272a14.085,14.085,0,0,0,5.278-2.347c-2.869,7.886,8.976,24.3,8.976,24.3,1.381,2.033,4.541.767,4.541.767,7.633-1.158,21.68-23.107,23.974-26.758A9.772,9.772,0,0,0,921.654,340.112Z" transform="translate(-226.542 -94.232)"/><path class="g" d="M930.19,528.784c-4.48,1.02-29.267,6.505-38.664,5.132-10.341-1.534-30.448-2.516-30.448-2.516s-12.8.69-16.747-1.112v-.767l7.3-8.745s70.639-5.3,75.948,0C928.908,522.1,929.714,525.063,930.19,528.784Z" transform="translate(-220.509 -136.163)"/><path class="h" d="M878.381,365.163s-13.31-18.412-8.293-25.623L847.6,348.746S834.071,347.1,829.192,367.3a35.143,35.143,0,0,0-.836,10.249c.184,3.069-.23,8.439-3.705,15.343-5.546,11.1-4.288,36.585,7.065,39.125s15.381,1.258,15.381,1.258-1.534,46.167-8.07,51.468,16.724,4.035,16.724,4.035,20.107,1.013,30.456,2.524,39.355-5.3,39.355-5.3-4.288-19.424-5.807-31.783-5.056-38.687-5.056-38.687l25.73-34.859s4.542-21.066-11.354-30.4S907.2,338.65,907.2,338.65s-15.972,26.006-24.3,27.265C882.923,365.915,879.762,367.188,878.381,365.163Z" transform="translate(-215.182 -94.304)"/><path class="g" d="M855.878,382.74s-.245,8.331,1.266,11.607,7.065,21.48,7.065,21.48H851.59s6.812-7.319,6.314-10.855S855.878,382.74,855.878,382.74Z" transform="translate(-222.199 -104.57)"/><path class="s" d="M893.656,453.9s-27.863-6.812-30.456-12.612-9.75-18.788-9.75-18.788l2.938-3.959,13.548,10.633s16.11,12.865,23.72,14.131S893.656,453.9,893.656,453.9Z" transform="translate(-222.632 -112.906)"/><path class="t" d="M893.656,453.9s-27.863-6.812-30.456-12.612-9.75-18.788-9.75-18.788l2.938-3.959,13.548,10.633s16.11,12.865,23.72,14.131S893.656,453.9,893.656,453.9Z" transform="translate(-222.632 -112.906)"/><path class="s" d="M921.983,421.829v15.113h-2.424a70.645,70.645,0,0,0-34.319,8.89l-4.545,2.517-1.22.683-7.825-17.644,7.318-6.559h.376c1.787.176,9.528.821,12.811-.284,3.115-1.059,6.981-4.411,16.156-2.071,4.519,1.158,8.385,6.222,12.765,4.641Z" transform="translate(-226.87 -113.633)"/><path class="g" d="M952.326,380.795l5.04,5.677v13.755s-4.288,43.39-17.905,48.185-37.943-2.777-37.943-2.777-6.283-16.647-3.345-17.645,25.968-7.088,25.968-7.088-.322-25.454,4.718-33.026c0,0-3.276-23.713,8.078-24.219S952.326,380.795,952.326,380.795Z" transform="translate(-232.864 -100.124)"/><path class="h" d="M953.327,380.795l5.048,5.677v13.755s-4.288,43.39-17.913,48.185-37.943-2.777-37.943-2.777-6.283-16.647-3.337-17.645,25.968-7.088,25.968-7.088-.33-25.454,4.718-33.026c0,0-3.283-23.713,8.071-24.219S953.327,380.795,953.327,380.795Z" transform="translate(-233.098 -100.124)"/><path class="g" d="M912.165,298.847a10.142,10.142,0,0,0-.575-4.917,3.744,3.744,0,0,0-4-2.3c-2.156.506-3.069,3.314-5.2,3.989-1.787.568-3.736-.7-4.6-2.363a11.769,11.769,0,0,1-.875-5.493V281.44c0-2.3-.077-4.772-1.488-6.575-1.757-2.24-5.892-3.222-8.653-3.13a7.342,7.342,0,0,0-4.941,1.987,6.358,6.358,0,0,1-5.194,1.849,4.472,4.472,0,0,1-3.621-3.13v-.077a25.73,25.73,0,1,1,38.25,34.153,69.384,69.384,0,0,0,.905-7.671Z" transform="translate(-227.187 -76.479)"/><path class="u" d="M874.606,270.088a4.511,4.511,0,0,1-3.629-3.138c-.207-.813-.153-1.68-.391-2.486-.591-1.987-2.708-3.015-4.127-4.526-2.838-3.015-2.654-7.971-.644-11.6,1.626-2.923,4.772-5.37,8.07-4.818,2.041.353,3.836,1.8,5.876,1.941s3.836-.99,5.623-1.818a21.188,21.188,0,0,1,13.977-1.243,8.056,8.056,0,0,1,3.836,1.941,33.55,33.55,0,0,1,2.048,2.877c2.347,2.992,6.559,3.583,10.31,4.258s7.994,2.163,9.206,5.769c.821,2.394,0,4.986-.445,7.472a2.256,2.256,0,0,0,.1,1.534c.591.967,2.056.56,3.161.767,2.125.453,2.67,3.191,2.754,5.37q.13,3.728.2,7.464a9.506,9.506,0,0,1-.222,2.762,9.75,9.75,0,0,1-2.14,3.475L919.838,296.1c-3.7,4.434-7.618,9.6-6.9,15.343-1.749.767-3.836-.729-4.4-2.562s-.115-3.836.276-5.685a69.688,69.688,0,0,0,1.335-9.858,10.113,10.113,0,0,0-.575-4.91,3.744,3.744,0,0,0-4-2.3c-2.163.506-3.069,3.314-5.2,3.989-1.787.568-3.736-.7-4.6-2.363a11.736,11.736,0,0,1-.875-5.485v-6.329c0-2.3-.077-4.772-1.488-6.575-1.757-2.24-5.892-3.222-8.654-3.13a7.341,7.341,0,0,0-4.933,1.987A6.37,6.37,0,0,1,874.606,270.088Z" transform="translate(-225.162 -71.741)"/><path class="g" d="M885.3,381.92l7.9,32.458S899.431,414.34,885.3,381.92Z" transform="translate(-230.049 -104.379)"/><path class="g" d="M918.292,374.85s-10.341,16.939-6.306,34.46l1.926.138S910.475,401.34,918.292,374.85Z" transform="translate(-236.045 -102.733)"/><path class="g" d="M929,499.546s12.7-4.2,13.625,5.546C942.655,505.093,940.262,498.411,929,499.546Z" transform="translate(-240.224 -131.559)"/><path class="g" d="M874.6,426.81s-2.524,17.645,2.018,24.725a55.331,55.331,0,0,1-22.2,3.03L852.88,426.81Z" transform="translate(-222.5 -114.832)"/><path class="g" d="M880.695,449.311l-1.22.683-7.825-17.645,7.318-6.559h.376C879.229,426.665,877.189,441.831,880.695,449.311Z" transform="translate(-226.87 -114.594)"/><path class="h" d="M872.384,425.83s-2.524,17.644,2.018,24.718a55.168,55.168,0,0,1-22.2,3.03l-8.83-27.748Z" transform="translate(-220.285 -114.604)"/><path class="m" d="M834.592,803.5a5.715,5.715,0,0,1-4.9,5c-6.851,1.02-23.352,3.629-27.518,5.616-5.3,2.524-26.237.767-27.249-1.764a4,4,0,0,1,.361-3.069,8.086,8.086,0,0,1,3.383-3.636,8.967,8.967,0,0,1,1.534-.675c3.943-1.312,11.392-4.1,13.4-7.035,0,0,9.29-8.124,11.937-12.512a6.06,6.06,0,0,1,4.848-3.023c2.209-.1,4.672,1.013,5.685,5.853,0,0,12.1,6.9,15.343.851,0,0,.506,9.3,2.516,11.845h0a3.376,3.376,0,0,1,.66,2.547Z" transform="translate(-204.311 -197.631)"/><path class="g" d="M834.592,809.137a5.715,5.715,0,0,1-4.9,5c-6.851,1.02-23.352,3.629-27.518,5.616-5.3,2.524-26.237.767-27.249-1.764a4,4,0,0,1,.361-3.069,8.087,8.087,0,0,1,3.383-3.636c3.414,2.3,10.993,4.48,27.663,1.879,15.9-2.485,23.782-4.917,27.617-6.574h0a3.375,3.375,0,0,1,.644,2.547Z" transform="translate(-204.311 -203.263)"/><g class="o" transform="translate(639.13 181.938)"><path d="M942.458,270.373v-.123a22.6,22.6,0,0,0,.767-5.731,37.851,37.851,0,0,1-.767,4.6A2.794,2.794,0,0,0,942.458,270.373Z" transform="translate(-882.471 -258.981)"/><path d="M909.551,292.305a7.293,7.293,0,0,1,.621,2.884,8.7,8.7,0,0,0-.621-4.02,3.729,3.729,0,0,0-4-2.3c-2.163.506-3.069,3.314-5.209,3.989-1.78.568-3.728-.7-4.6-2.363a11.673,11.673,0,0,1-.875-5.493v-6.321c0-2.3-.077-4.772-1.488-6.574-1.765-2.248-5.892-3.222-8.654-3.138a7.349,7.349,0,0,0-4.94,1.995,6.374,6.374,0,0,1-5.2,1.849,4.5,4.5,0,0,1-3.621-3.13c-.207-.813-.153-1.688-.391-2.493-.591-1.979-2.708-3.015-4.127-4.519a8.261,8.261,0,0,1-2.125-5.37,8.6,8.6,0,0,0,2.125,6.467c1.419,1.534,3.537,2.539,4.127,4.519.238.767.184,1.68.391,2.493a4.5,4.5,0,0,0,3.621,3.13,6.374,6.374,0,0,0,5.2-1.849,7.349,7.349,0,0,1,4.94-1.995c2.762-.084,6.9.89,8.654,3.138,1.412,1.8,1.481,4.281,1.488,6.574V286.1a11.61,11.61,0,0,0,.875,5.485c.874,1.649,2.8,2.938,4.6,2.37,2.117-.675,3.069-3.483,5.209-3.989A3.875,3.875,0,0,1,909.551,292.305Z" transform="translate(-864.285 -257.3)"/><path d="M945.038,293.384a9.7,9.7,0,0,1-2.148,3.467l-8.331,10.011c-3.506,4.212-7.211,9.091-6.9,14.469.253-4.933,3.69-9.421,6.9-13.333l8.331-10.011a9.694,9.694,0,0,0,2.148-3.467,9.567,9.567,0,0,0,.223-2.769A7.288,7.288,0,0,1,945.038,293.384Z" transform="translate(-879.036 -265.322)"/><path d="M921.916,327.7a5.91,5.91,0,0,1-.253-1.35,6.806,6.806,0,0,0,.253,2.486c.568,1.826,2.647,3.337,4.4,2.555a10.724,10.724,0,0,1-.092-1.1C924.478,330.984,922.453,329.5,921.916,327.7Z" transform="translate(-877.64 -273.378)"/></g><path class="g" d="M812.69,789.36s2.639,4.6,12.2.552" transform="translate(-213.142 -199.251)"/><path class="g" d="M918,790.82s8.239,9.7,18.626,3.184" transform="translate(-237.663 -199.591)"/><path class="g" d="M947.434,641.23s-5.823,3.636-6.007,5.715,3.007-1.534,3.007-1.534Z" transform="translate(-243.116 -164.759)"/><path class="g" d="M949.087,677.59a12.174,12.174,0,0,1-7.173,2.8c-4.357.192-3.989,5.869-1.143,4.166S949.087,677.59,949.087,677.59Z" transform="translate(-242.467 -173.226)"/><path class="g" d="M952.163,682.34s-2.792,13.724-5.063,11.078" transform="translate(-244.439 -174.332)"/><path class="v" d="M247.929,679.848s17.529,4.81,25.968-1.588,12.1-4.342,12.1-4.342,20.122-1.112,21.779-5.869-7.718-22.033-7.718-22.033c-.667-1.534-1.642-3.483-2.079-3.483l.092-7.288h0l2.915-30.494c6.728-17.253.123-39.547.123-39.547l-1.2-5.531a13.993,13.993,0,0,1,1.143-9.206l12.221-24.549a36.734,36.734,0,0,1,2.3-4.71c.767-1.4,1.787-3.138,3.069-5.217.376-.6.767-1.22,1.2-1.872,1.481-2.3,3.276-4.91,5.447-7.917,5.408-7.5,8.255-16.877,9.727-23.782l.652,2.163h.146l.176.038h.292l.315.054h.115l3.759,47.839c.23,18.657,7.081,28.983,7.081,28.983l-.944,41.188c1.289,9.919-1.534,23.145-2.831,28.423l-2.961,6.682a8.032,8.032,0,0,0-4.365,6.076c-.583,4.933-5.777,15.565-5.777,15.565-2.01,2.547-6.375,9.428-6.375,9.428s-2.056,6.643-.783,9.129,11.922,2.232,11.922,2.232c12.159,2.693,21.48-3.836,20.889-8.331s1.895-5.638,1.895-5.638c4.833-1.534,4.365-4.81,4.365-4.81a30.1,30.1,0,0,0-3.659-19.593l-.767,1.772a26.982,26.982,0,0,1,1.458-10.456l-.445.307-.138.084h-.046c.767-6.728,7.833-19.179,7.833-19.179,12.98-22.769,8.262-53.624,8.262-53.624l-2.01-9.62-.115-3.629a121.108,121.108,0,0,1,1.956-25.853c.7-3.774,1.419-8.331,1.972-13.356,1.166-10.617,4.925-21.572,6.659-26.214l.514-.092h.061c.706-.123,1.419-.245,2.14-.384h.138s.414-2.24.767-6.053c.207-2.432.376-5.516.376-9.06a101.932,101.932,0,0,0-4.841-31.538l.391-.56s.928-1.258,2.624-3.437h0c3.115-3.958,7.963-9.973,13.939-16.755,10.7-12.205,7.556-24.549,7.556-24.549s-7.748-28.392-11.2-45.438a51.673,51.673,0,0,0-8.5-20.214,40.231,40.231,0,0,0,1.074-8.193c.23-5.048.054-10.311-2.217-14.844s-7.1-8.116-12.152-7.51a4.65,4.65,0,0,1-2.179,0,3.314,3.314,0,0,1-1.435-1.25c-2.954-4.074-3.145-9.551-2.225-14.491s2.808-9.666,3.652-14.622.46-10.456-2.693-14.384c-3.705-4.6-10.165-5.9-14.982-9.359-3.383-2.432-5.922-5.922-9.49-8.078s-6.9-1.335-10.779-.522c-6.513,1.373-12.7,2-18.864,4.8a50.24,50.24,0,0,0-16.44,11.96,15.6,15.6,0,0,0-3.667,5.784c-1.534,5.071,1.465,10.472.836,15.719-.445,3.721-2.639,6.958-4.38,10.28s-3.069,7.265-1.7,10.74c2.148,5.431,9.152,6.582,14.246,9.474a4.35,4.35,0,0,1,1.688,1.465c1.258,2.194-1.312,4.473-2.931,6.421a9.674,9.674,0,0,0-1.918,3.9,13.9,13.9,0,0,0-8.339,10.065c-1.726,7.725.928,17.476,3.268,23.92-2.555,14.353.767,20.015,3.214,22.186a12.313,12.313,0,0,1,4.265,8.393v.268c.161,2.608.437,5.209.806,7.8h0c-.084-.606-.169-1.25-.215-1.534-2,3.705-5.815,13.172-7.963,29.1a87.448,87.448,0,0,1-1.941,10.134,55.419,55.419,0,0,0-1.626,18.12l.384,5.163a1.626,1.626,0,0,1-1.043-.345l2.693,4.933v8.324a30.687,30.687,0,0,1-2.041,10.978c-.192.506-.4,1.013-.621,1.534a8.929,8.929,0,0,0-.905,4.519c-5.792,8.876-19.071,58.618-19.071,58.618-7.2,16.31.591,26.85.591,26.85s3.774,45.408,4.48,47.755,2.271,30.026,2.271,30.026h0v2.2a5.163,5.163,0,0,0-1.312-.376c-6.314-.353-8.024,9.62-8.024,9.62L256.9,661.882s-5.9-1-14.576,5.516S247.929,679.848,247.929,679.848Zm129-262.435-.038-.138-.353.207h0l-.146.084-.069.046h0L370.366,396.6a34.89,34.89,0,0,1-.437-17.284l4.6-20.161h0v-4.848l14.63,38.987C390.1,398.549,381.406,411.276,376.926,417.414Z" transform="translate(-79.681 -68.98)"/><path class="w" d="M412.715,557s-5.907,14.369-7.411,28.154c-.545,4.971-1.25,9.467-1.941,13.195a120.582,120.582,0,0,0-1.887,25.523l.115,3.583,1.918,9.49s4.6,30.479-8.109,52.933c0,0-7.533,13.448-7.764,19.816l-5.1,1.972-10.311-2.892s4.979-17.852,3.36-30.364l.928-40.659s-6.7-10.172-6.927-28.584l-3.935-50.525Z" transform="translate(-109.049 -145.146)"/><path class="w" d="M345.462,547.62s-1.266,19.7-11.009,33.279-11.814,19.47-11.814,19.47l-12,24.257a13.893,13.893,0,0,0-1.128,9.075l1.181,5.462s6.49,22.017-.115,39.056l-3.13,32.911h-18.3s-1.534-27.349-2.2-29.666-4.4-47.165-4.4-47.165-7.672-10.433-.583-26.536c0,0,16-60.26,20.276-59.216S345.462,547.62,345.462,547.62Z" transform="translate(-88.861 -142.962)"/><g class="o" transform="translate(216.732 404.658)"><path d="M316.925,639.2l-1.174-5.462a13.808,13.808,0,0,1,1.12-9.114l12-24.28s2.079-5.907,11.814-19.47c9.352-13.042,10.894-31.729,11-33.164l1.864-.092s-1.266,19.7-11.009,33.279-11.814,19.47-11.814,19.47l-12,24.257A13.893,13.893,0,0,0,317.6,633.7l1.181,5.462s6.49,22.017-.115,39.056l-3.13,32.911H313.68l3.13-32.911C323.415,661.181,316.925,639.2,316.925,639.2Z" transform="translate(-313.68 -547.62)"/></g><path class="g" d="M390.61,709.717c.23-6.367,7.764-19.815,7.764-19.815,12.75-22.477,8.109-52.933,8.109-52.933l-1.964-9.5-.115-3.583a120.584,120.584,0,0,1,1.887-25.523c.683-3.728,1.388-8.224,1.933-13.2,1.45-13.272,6.981-27.08,7.388-28.093l1.9-.077s-5.907,14.369-7.411,28.154c-.545,4.971-1.25,9.467-1.941,13.195a120.58,120.58,0,0,0-1.887,25.523l.115,3.583,1.918,9.49s4.6,30.479-8.109,52.933c0,0-7.533,13.448-7.764,19.816l-5.1,1.972-1.074-.3Z" transform="translate(-113.848 -145.146)"/><path class="x" d="M380.672,754.864a8.868,8.868,0,0,0,8.439-1.043,27.233,27.233,0,0,0-.69,15.3c2.087,8.347-19.47-6.72-19.47-6.72l4.6-10.518S375.34,755.209,380.672,754.864Z" transform="translate(-109.817 -190.524)"/><path class="g" d="M382.28,755.325a8.615,8.615,0,0,0,6.851-1.534,27.233,27.233,0,0,0-.69,15.3c2.087,8.347-19.47-6.72-19.47-6.72l4.6-10.518a6.577,6.577,0,0,0,5.255,2.961C380.017,754.949,381.152,755.11,382.28,755.325Z" transform="translate(-109.822 -190.517)"/><path class="w" d="M289.32,465.622h9.006v-51.1l-6.759-1.212Z" transform="translate(-67.371 -96.238)"/><path class="t" d="M289.32,465.622h9.006v-51.1l-6.759-1.212Z" transform="translate(-67.371 -96.238)"/><path class="y" d="M370.8,760.632s5.677-.353,8.224,4.749l3.13,2.432,1.534-3.59a29.919,29.919,0,0,1,3.544,19.355s.46,3.237-4.288,4.749c0,0-2.432,1.158-1.857,5.562s-8.569,10.894-20.506,8.224c0,0-10.433.238-11.707-2.2s.813-8.922.813-8.922,4.288-6.8,6.252-9.306c0,0,5.1-10.51,5.685-15.343S367.785,757.962,370.8,760.632Z" transform="translate(-105.047 -192.348)"/><path class="x" d="M310.472,764.195l.092-7.2s-10.364,2.984-18.757-.391c0,0,.706,7.242-.46,8.232s3.882,10.31,3.882,10.31l5.639,5.907,9.7-3.529,2.631-8.285S311.162,764.195,310.472,764.195Z" transform="translate(-91.707 -191.623)"/><path class="g" d="M310.472,764.195l.092-7.2s-10.364,2.984-18.757-.391c0,0,.706,7.242-.46,8.232s3.882,10.31,3.882,10.31l5.639,5.907,9.7-3.529,2.631-8.285S311.162,764.195,310.472,764.195Z" transform="translate(-91.707 -191.623)"/><path class="y" d="M279.151,763.1s5.508.637,4.81,7.672.292,0,.292,0,5.853,2.37,7.94,5.677,5.853-2.954,6.137-4.749,2.631-2.539,2.631-2.539,9.206,17.069,7.579,21.764-21.388,5.777-21.388,5.777-3.6-2.025-11.883,4.288-25.492,1.534-25.492,1.534-14.023-5.853-5.5-12.274,14.307-5.447,14.307-5.447l12.689-12.228S272.952,762.744,279.151,763.1Z" transform="translate(-80.147 -193.134)"/><path class="z" d="M359.764,236.671c3.506,2.125,6,5.577,9.321,7.978,4.726,3.414,11.07,4.687,14.706,9.244,3.069,3.882,3.468,9.306,2.639,14.2s-2.685,9.566-3.583,14.445-.713,10.287,2.186,14.307a3.245,3.245,0,0,0,1.4,1.235,4.6,4.6,0,0,0,2.14,0c4.956-.6,9.712,2.946,11.937,7.418s2.4,9.674,2.171,14.66c-.192,4.089-.652,8.262-2.447,11.945-3.069,6.26-9.451,10.126-15.75,13.088a122,122,0,0,1-12.574,5.079c-2.946,1-6.053,1.895-9.114,1.373-5.24-.905-8.953-5.669-13.924-7.533-4.074-1.534-8.592-.982-12.927-.6-3.7.322-7.925.315-10.472-2.386-3.268-3.468-1.8-9.06-.123-13.525a9.628,9.628,0,0,1-6.812-15.742c1.58-1.926,4.1-4.173,2.869-6.344a4.2,4.2,0,0,0-1.657-1.442c-4.994-2.854-11.876-4-13.978-9.352-1.35-3.444-.046-7.342,1.665-10.617s3.836-6.482,4.3-10.149c.614-5.186-2.3-10.518-.821-15.519a15.557,15.557,0,0,1,3.6-5.723,49.374,49.374,0,0,1,16.11-11.806c6.053-2.769,12.121-3.391,18.519-4.741C352.991,235.352,356.167,234.493,359.764,236.671Z" transform="translate(-94.978 -70.237)"/><path class="w" d="M326.748,337.757S312.073,336.99,309.3,349.5s6.022,30.433,6.022,30.433Z" transform="translate(-95.8 -94.094)"/><path class="t" d="M326.748,337.757S312.073,336.99,309.3,349.5s6.022,30.433,6.022,30.433Z" transform="translate(-95.8 -94.094)"/><path class="w" d="M320,365.787l5.562,4.4,25.953,1.158,16.2-11.124L384.2,331.948c-10.073-2.57-14.146-9.528-15.665-16.033a35.1,35.1,0,0,1-.322-13.394s-26.421-13.678-23.176,7.671a29,29,0,0,1,.245,7.932c-1.534,12.5-13.671,10.149-13.671,10.149l-4.657,7.181L321.619,353.1Z" transform="translate(-98.419 -84.886)"/><path class="g" d="M352.576,310.159a29,29,0,0,1,.246,7.932,23.421,23.421,0,0,0,23.252-2.179,35.1,35.1,0,0,1-.322-13.394S349.331,288.84,352.576,310.159Z" transform="translate(-105.94 -84.885)"/><circle class="w" cx="23.406" cy="23.406" r="23.406" transform="translate(233.211 187.585)"/><path class="h" d="M336.736,370.318c.568,0,1.128.084,1.688.138,3.069.307,15.888,1,23.191-7.725,8.17-9.758,19.048-21.81,19.493-22.3l11.07,3.345s-8.761-3.115-14.576,13.18a16.877,16.877,0,0,0,5.7,19.417,17.537,17.537,0,0,0,7.242,3.069.038.038,0,0,1,0,.038v7.15h0l-4.526,19.946a34.576,34.576,0,0,0,.43,17.069l6.9,24.4c-1.043.721-43.881,29.858-72.5,9.735h0c.107-.875,3.644-29.512,1.189-43.528a96.8,96.8,0,0,1-1.281-10.832c0-.092,0-.176,0-.269a12.213,12.213,0,0,0-4.2-8.285c-2.578-2.3-6.068-8.439-2.616-24.656a59.576,59.576,0,0,1,3.836-11.684l9.6-21.687h0l8.845.177v.061c-.767.951-11.024,13.763-12.136,22.017C323,366.943,321.661,369.352,336.736,370.318Z" transform="translate(-96.674 -93.882)"/><path class="w" d="M413.035,349.584s8.653,7.418,12.052,24.257,10.97,44.809,10.97,44.809,3.069,12.205-7.418,24.257-17.46,21.48-17.46,21.48l-6.9,10.172a8.66,8.66,0,0,1-4.971,3.513c-3.145.829-7.978,1.427-12.167-.867a7.089,7.089,0,0,1-3.069-8.953L385.6,464.7s-14.215,8.96-15.45,4.012,16.532-9.889,16.532-9.889,14.676-2.47,17.644-9.421c0,0,15.757-20.245,14.522-27.2l-15.22-40.789s-19.033-2.516-12.543-23.9S413.035,349.584,413.035,349.584Z" transform="translate(-110.083 -95.879)"/><path class="r" d="M307.4,534s34.767,6.951,42.96,6.022l.882,2.938s13.2,2.953,43.029-1.78q2.923-.46,6.068-1.036l.7-.123s.407-2.209.729-5.976c.713-8.554.967-25.117-5.056-42.071l-5.017-15.45s-31.008,18.588-51.537,16.877c-1.833-.153-3.652-.3-5.485-.361-4.212-.161-10.74,0-14.982-3.4l-8.9,1.534V516.5a30.333,30.333,0,0,1-2.01,10.832c-.192.506-.391,1.005-.614,1.534A8.055,8.055,0,0,0,307.4,534Z" transform="translate(-95.455 -126.409)"/><path class="g" d="M364.58,552.546v7.879s15.19,3.4,49.8-2.938c0,0,.407-2.209.729-5.976C404.487,553.213,375.205,557.31,364.58,552.546Z" transform="translate(-108.8 -143.868)"/><path class="g" d="M307.4,549.433s34.767,6.95,42.96,6.022l.882,2.938v-7.879c-3.959,1.642-32.22-5.171-42.462-7.725-.192.506-.391,1.005-.614,1.534a8.056,8.056,0,0,0-.767,5.109Z" transform="translate(-95.456 -141.838)"/><path class="r" d="M417.31,538.5l2.578,15.987q2.923-.46,6.068-1.036c-.806-4.672-2.562-15.343-2.079-17.115l-3.245-2.777Z" transform="translate(-121.078 -139.688)"/><path class="g" d="M417.78,538.05l2.578,16q2.923-.468,6.068-1.036c-.805-4.672-2.562-15.343-2.079-17.115L421.1,533.11Z" transform="translate(-121.187 -139.584)"/><g class="aa" transform="translate(222.739 350.098)"><path d="M341.609,497.379c-1.826-.154-3.652-.3-5.485-.361-4.1-.153-10.349,0-14.614-3.138L323,493.62c4.265,3.383,10.74,3.237,14.982,3.4,1.833.061,3.652.207,5.485.361.6.054,1.212.084,1.834.1a34.416,34.416,0,0,1-3.69-.1Z" transform="translate(-321.51 -480.486)"/><path d="M409.316,541.179q2.923-.46,6.068-1.028l.706-.13s.407-2.209.721-5.976c.721-8.554.974-25.116-5.056-42.071L407.029,477.4c1-.568,1.534-.9,1.534-.9l5.017,15.45c6.022,16.954,5.769,33.517,5.056,42.07-.322,3.767-.729,5.976-.729,5.976l-.7.13q-3.138.568-6.068,1.028a191.116,191.116,0,0,1-31.261,2.685A197.164,197.164,0,0,0,409.316,541.179Z" transform="translate(-335.101 -476.5)"/><path d="M360.7,559.3v.084h-1Q360.268,559.346,360.7,559.3Z" transform="translate(-330.403 -495.78)"/></g><ellipse class="x" cx="1.312" cy="2.7" rx="1.312" ry="2.7" transform="translate(299.24 396.395)"/><path class="w" d="M312.691,460.37c2.117-15.727,5.853-25.07,7.825-28.73.077.5.276,2.117.368,2.616.4,2.3.046,5.2.169,8.124l-1.964,35.565,2.631,11.124c2.47,8.807-6.682,1.849-6.682,1.849-1.895,4.173-5.37,3.713-5.37,3.713l-.476-6.383a55.132,55.132,0,0,1,1.6-17.9A85.287,85.287,0,0,0,312.691,460.37Z" transform="translate(-95.867 -115.957)"/><path class="t" d="M312.691,460.37c2.117-15.727,5.853-25.07,7.825-28.73.077.5.276,2.117.368,2.616.4,2.3.046,5.2.169,8.124l-1.964,35.565,2.631,11.124c2.47,8.807-6.682,1.849-6.682,1.849-1.895,4.173-5.37,3.713-5.37,3.713l-.476-6.383a55.132,55.132,0,0,1,1.6-17.9A85.287,85.287,0,0,0,312.691,460.37Z" transform="translate(-95.867 -115.957)"/><path class="w" d="M415.326,489.317c-1.665,2.156-2.578,3.391-2.578,3.391l-6.9,10.165a8.623,8.623,0,0,1-4.971,3.513c-3.145.829-7.978,1.435-12.167-.867a7.073,7.073,0,0,1-3.069-8.945l1.534-3.56s-14.215,8.96-15.45,4.02,16.532-9.889,16.532-9.889,14.676-2.47,17.644-9.428c0,0,1.281-1.642,3.069-4.158" transform="translate(-110.448 -125.718)"/><path class="r" d="M409.852,512.9s-16.808-1.634-22.132-11.246l-2.44,7.94s17.644,12.182,21.672,10.6Z" transform="translate(-113.62 -132.258)"/><path class="g" d="M409.074,512.794s-16.8-1.634-22.132-11.254l-2.432,7.917s17.645,12.182,21.664,10.6Z" transform="translate(-113.44 -132.233)"/><path class="r" d="M315.442,510.46s-5.884,2.087-7.042.928l2.647,4.871,5-3.836Z" transform="translate(-95.718 -134.31)"/><path class="g" d="M315.442,510.46s-5.884,2.087-7.042.928l2.647,4.871,5-3.836Z" transform="translate(-95.718 -134.31)"/><path class="g" d="M332.687,529.635V519.47l-2.417,10.41Z" transform="translate(-76.906 -120.957)"/><path class="g" d="M379.534,272.379a9.028,9.028,0,0,1-6.306,3.322,49.684,49.684,0,0,1-7.326,0c-3.836-.061-7.917.529-11.055,2.785a28.106,28.106,0,0,0-5.071,5.37c-4.741,5.792-11.323,11.216-18.8,10.61a4.872,4.872,0,0,1-3.491-1.473,5.6,5.6,0,0,1-.89-3.176,72.6,72.6,0,0,1,.453-14.315,30.18,30.18,0,0,1,2.163-8.538,29.151,29.151,0,0,1,5.2-7.426,31.812,31.812,0,0,1,9.075-7.273,16.279,16.279,0,0,1,11.354-1.465c4.472,1.22,7.955,4.718,12.221,6.521C371.939,259.368,384.873,264.838,379.534,272.379Z" transform="translate(-99.918 -73.747)"/><path class="z" d="M379.534,271.166a9.028,9.028,0,0,1-6.306,3.322,49.684,49.684,0,0,1-7.326,0c-3.836-.069-7.917.522-11.055,2.777a28.1,28.1,0,0,0-5.071,5.37c-4.741,5.792-11.323,11.216-18.8,10.61a4.841,4.841,0,0,1-3.491-1.473,5.578,5.578,0,0,1-.89-3.176,72.608,72.608,0,0,1,.453-14.315,30.18,30.18,0,0,1,2.163-8.538,28.951,28.951,0,0,1,5.2-7.418,31.706,31.706,0,0,1,9.075-7.28,16.279,16.279,0,0,1,11.354-1.465c4.472,1.22,7.955,4.718,12.221,6.521C371.939,258.156,384.873,263.61,379.534,271.166Z" transform="translate(-99.918 -73.463)"/><path class="w" d="M292.09,473.47l-.061,2.8-.629-2.677Z" transform="translate(-67.855 -110.246)"/><path class="t" d="M292.09,473.47l-.061,2.8-.629-2.677Z" transform="translate(-67.855 -110.246)"/><g class="aa" transform="translate(279.258 250.192)"><path d="M399.323,356.258c-6.5,21.381,12.443,23.889,12.443,23.889l15.22,40.789c1.235,6.95-14.53,27.2-14.53,27.2-1.1,2.593-3.836,4.565-6.828,6.022a10.7,10.7,0,0,0,4.051-4.449s15.757-20.237,14.522-27.188l-15.22-40.8s-18.933-2.509-12.443-23.889c2.171-7.142,5.37-10.395,8.607-11.561C402.914,348.065,400.866,351.172,399.323,356.258Z" transform="translate(-395.184 -346.27)"/></g><g class="o" transform="translate(215.887 242.95)"><path d="M401,384.61a15.986,15.986,0,0,0,3.069,2.908,17.437,17.437,0,0,0,7.242,3.069v.805a17.384,17.384,0,0,1-6.567-2.908A15.92,15.92,0,0,1,401,384.61Z" transform="translate(-333.167 -347.956)"/><path d="M323.449,422.438v.268a99.074,99.074,0,0,0,1.319,10.87c2.3,13.226-.713,39.485-1.143,43.114-.246-.161-.491-.315-.767-.491.115-.874,3.652-29.512,1.2-43.52a97.2,97.2,0,0,1-1.281-10.832v-.269a11.837,11.837,0,0,0-2.064-5.869,11.929,11.929,0,0,1,2.739,6.728Z" transform="translate(-314.471 -355.197)"/><path d="M335.678,337.881l-7.5-.146a.038.038,0,0,0-.038,0l-9.589,21.68a59.771,59.771,0,0,0-3.836,11.684c-2.792,13.118-1.036,19.654,1.1,22.884-2.4-2.831-4.879-9.283-1.787-23.782a59.14,59.14,0,0,1,3.8-11.691l9.658-21.68h0l8.845.176v.054C336.254,337.152,336.016,337.444,335.678,337.881Z" transform="translate(-312.577 -336.83)"/><path d="M416.39,345.87l.13.038Z" transform="translate(-336.75 -338.935)"/><path d="M393.159,344.741l-7.518-2.263H385.6c-.445.491-11.315,12.543-19.486,22.3-7.3,8.722-20.107,8.04-23.191,7.733-.56-.061-1.128-.107-1.688-.146-8.385-.537-11.684-1.534-12.788-3.652,1.573,1.534,5.032,2.3,12.09,2.731.568,0,1.128.084,1.688.138,3.069.307,15.888.99,23.191-7.725,8.17-9.766,19.048-21.818,19.493-22.309h0l10.94,3.314a6.835,6.835,0,0,0-2.693-.123Z" transform="translate(-316.273 -337.929)"/></g><path class="g" d="M292.935,777.129s-10.587,2.892-12.635-1.649" transform="translate(-89.175 -196.019)"/><path class="g" d="M379.793,774.274s-12.274,3.168-15.113-1.734" transform="translate(-108.823 -195.335)"/><path class="ab" d="M589.915,759.317c.176-1.534.43-3.069.706-4.6,1.212-6.628-.637-12.949-1.534-15.558h0c-.284-.806-.491-1.258-.491-1.258-4.887-1.335-24.15,13.609-31.169,19.24-2.432,0-5.071.107-7.955.3-1.258.092-2.516.123-3.774.1h-4.6c-6.513-5.247-26.674-21.028-31.691-19.662,0,0-.207.453-.491,1.258h0a31.522,31.522,0,0,0-1.573,15.558c.276,1.534.529,3.069.706,4.6.376,3.368,1.787,9.835,6.9,14.2,1.1,7.978,5.2,18.465,8.362,24.833a17.789,17.789,0,0,0,1.074,3.506c-1.3,5.032-2.808,11.6-2.378,13.809,0,0-6.812-1.649-7.5,6.551v.253c-2.463,1.128-5.539,3.713-2.079,9.129a3.552,3.552,0,0,0,1.78,1.45c.614.215,1.212.215,1.151-.644l4.258,4.795s7.718.89,7.81-3.59l.453.069c1.036.154,2.117.284,3.23.4l.537,1.772s-5.792-.123-4.212,3.445c0,0,1.458,1.35,1.956.859,0,0-.767,2.34,2.255,2.34,0,0,3.245,1.718,4.511.491s3.889-3.069,4.135-3.836c.069-.207.1-2.025.115-4.542h.5c6.467.154,13.333-.054,19.578-.391h.506c0,2.723.038,4.733.107,4.948.253.767,2.884,2.585,4.143,3.836s4.5-.491,4.5-.491c3.007,0,2.255-2.34,2.255-2.34.506.491,1.964-.859,1.964-.859,1.58-3.567-4.219-3.445-4.219-3.445l.69-2.3,3.2-.268.506-.046c-.307,4.872,7.8,3.935,7.8,3.935l4.265-4.795c-.069.859.529.859,1.143.644a3.521,3.521,0,0,0,1.726-1.465c5.224-8.17-4.426-9.9-4.426-9.9a4.736,4.736,0,0,0-.913-.146,1.578,1.578,0,0,1,.038-.422h0a16.831,16.831,0,0,0,.061-3.237c-.36-1.481-2.739-3.836-5.746-4.181-1.964-.246-2-9.267-1.8-15.519a17.855,17.855,0,0,0,.307-3.56,18.784,18.784,0,0,0-.767-5.7c3.836-6.505,6.9-13.325,7.25-15.343C588.128,769.128,589.539,762.684,589.915,759.317Z" transform="translate(-141.948 -187.244)"/><path class="h" d="M585.13,838.357h0c-.307,4.25-1.128,11.07-1.128,11.07s-3.414.414-8.692.89l-3.583.307c-2.746.223-5.83.437-9.091.621-6.022.33-12.635.537-18.872.384-3.115-.069-6.137-.23-8.937-.506-1.251-.123-2.463-.268-3.613-.437-7.15-1.066-12.274-3.107-12.712-6.689a20.707,20.707,0,0,1-.161-4.6c.667-8.055,7.226-6.429,7.226-6.429-.422-2.225,1.166-9.137,2.455-14.139.813-3.153,1.534-5.547,1.534-5.547l46.121-3.069h.154a2.255,2.255,0,0,1,2.255,2.371c-.276,5.531-.667,18.2,1.6,18.481,2.9.36,5.194,2.654,5.546,4.1A17.212,17.212,0,0,1,585.13,838.357Z" transform="translate(-144.589 -204.106)"/><path class="h" d="M543.764,761.381S526.373,782.316,518,776.516c-.2-.138-.391-.276-.575-.422-5.631-4.265-7.111-11.139-7.5-14.63-.169-1.534-.414-3.015-.683-4.511a31.322,31.322,0,0,1,1.534-15.274h0c.276-.767.468-1.235.468-1.235C517.029,738.834,543.764,761.381,543.764,761.381Z" transform="translate(-142.394 -187.842)"/><path class="h" d="M534.408,763.714s-5.477,3.836-13.2,10.142a27.9,27.9,0,0,1-3.836,2.639c-5.631-4.265-7.111-11.139-7.5-14.63-.169-1.534-.414-3.015-.683-4.511a31.323,31.323,0,0,1,1.534-15.274h0C521.551,742.832,534.408,763.714,534.408,763.714Z" transform="translate(-142.382 -188.242)"/><path class="ac" d="M534.408,763.714s-5.477,3.836-13.2,10.142a27.9,27.9,0,0,1-3.836,2.639c-5.631-4.265-7.111-11.139-7.5-14.63-.169-1.534-.414-3.015-.683-4.511a31.323,31.323,0,0,1,1.534-15.274h0C521.551,742.832,534.408,763.714,534.408,763.714Z" transform="translate(-142.382 -188.242)"/><path class="g" d="M530.279,764.086s-2.923,2.063-7.05,5.416a14.859,14.859,0,0,1-2.025,1.4,11.293,11.293,0,0,1-4-7.8c-.084-.813-.215-1.611-.361-2.417a16.77,16.77,0,0,1,.851-8.147h0C523.42,752.939,530.279,764.086,530.279,764.086Z" transform="translate(-144.213 -190.678)"/><path class="h" d="M569.05,761.381s17.391,20.935,25.769,15.136c.192-.138.391-.276.575-.422,5.631-4.265,7.111-11.139,7.5-14.63.169-1.534.414-3.015.675-4.511a31.232,31.232,0,0,0-1.534-15.274h0c-.276-.767-.476-1.235-.476-1.235C595.785,738.834,569.05,761.381,569.05,761.381Z" transform="translate(-156.41 -187.842)"/><path class="h" d="M581.22,763.714s5.485,3.836,13.21,10.142a27.894,27.894,0,0,0,3.8,2.639c5.631-4.265,7.112-11.139,7.5-14.63.169-1.534.414-3.015.675-4.511a31.23,31.23,0,0,0-1.534-15.274h0C594.093,742.832,581.22,763.714,581.22,763.714Z" transform="translate(-159.244 -188.242)"/><path class="ac" d="M581.22,763.714s5.485,3.836,13.21,10.142a27.894,27.894,0,0,0,3.8,2.639c5.631-4.265,7.112-11.139,7.5-14.63.169-1.534.414-3.015.675-4.511a31.23,31.23,0,0,0-1.534-15.274h0C594.093,742.832,581.22,763.714,581.22,763.714Z" transform="translate(-159.244 -188.242)"/><path class="g" d="M589.05,764.082s2.907,2.056,7,5.37a14.065,14.065,0,0,0,2.018,1.4c2.984-2.263,3.774-5.907,3.982-7.756.084-.767.215-1.6.361-2.4a16.8,16.8,0,0,0-.806-8.1h0C595.87,753,589.05,764.082,589.05,764.082Z" transform="translate(-161.067 -190.689)"/><path class="g" d="M578.609,810.23a41.665,41.665,0,0,1-6.659,8.485c-6.9,6.137-36.716,3.7-38.649,3.383-.406-.069-1.25-1.274-2.3-3.23.813-3.153,1.534-5.546,1.534-5.546Z" transform="translate(-147.55 -204.111)"/><path class="h" d="M552.118,765.378c-1.212.084-2.424.115-3.644.092-6.222-.107-27.18.169-29.5,8.63-2.739,9.973,9.5,36.677,11.43,37s31.729,2.739,38.657-3.383S585,782.4,584.515,780.66C584.515,780.66,593.107,762.54,552.118,765.378Z" transform="translate(-144.656 -193.597)"/><path class="g" d="M554.026,786.509s-15.343-2.363-22.539,12.735a18.412,18.412,0,0,0,1.358,18.557c2.393,3.368,5.907,5.876,10.794,3.836C554.5,817.165,554.026,786.509,554.026,786.509Z" transform="translate(-147.224 -198.556)"/><path class="g" d="M553.4,785.249s-15.343-2.363-22.539,12.735a18.411,18.411,0,0,0,1.358,18.557c2.393,3.368,5.907,5.876,10.794,3.836C553.872,815.9,553.4,785.249,553.4,785.249Z" transform="translate(-147.078 -198.263)"/><path class="h" d="M553.4,785.879s-15.343-2.363-22.539,12.735a18.411,18.411,0,0,0,1.358,18.557c2.393,3.368,5.907,5.876,10.794,3.836C553.872,816.535,553.4,785.879,553.4,785.879Z" transform="translate(-147.078 -198.41)"/><path class="ac" d="M553.4,785.879s-15.343-2.363-22.539,12.735a18.411,18.411,0,0,0,1.358,18.557c2.393,3.368,5.907,5.876,10.794,3.836C553.872,816.535,553.4,785.879,553.4,785.879Z" transform="translate(-147.078 -198.41)"/><path class="ad" d="M538.793,803.13s-2.094,1.933-1.289,2.417S538.793,803.13,538.793,803.13Z" transform="translate(-149.022 -202.458)"/><path class="ad" d="M541.991,806.35s-1.143,2.524-.33,2.8,1.3-1.81,1.3-1.81Z" transform="translate(-149.965 -203.207)"/><path class="ad" d="M535.439,811.32s-1.12,2.977,0,2.977S535.439,811.32,535.439,811.32Z" transform="translate(-148.468 -204.365)"/><path class="ae" d="M533.78,821.71s2.24,5.723,8.07,5.316" transform="translate(-148.198 -206.784)"/><path class="ae" d="M540.61,823.91s2.3,2.255,4.825.644" transform="translate(-149.788 -207.296)"/><path class="g" d="M564,786.509s15.343-2.363,22.539,12.735A18.411,18.411,0,0,1,585.18,817.8c-2.386,3.368-5.907,5.876-10.794,3.836C563.493,817.165,564,786.509,564,786.509Z" transform="translate(-155.233 -198.556)"/><path class="g" d="M564.589,785.249s15.343-2.363,22.539,12.735a18.411,18.411,0,0,1-1.358,18.557c-2.386,3.368-5.907,5.876-10.794,3.836C564.137,815.9,564.589,785.249,564.589,785.249Z" transform="translate(-155.371 -198.263)"/><path class="h" d="M564.589,785.879s15.343-2.363,22.539,12.735a18.411,18.411,0,0,1-1.358,18.557c-2.386,3.368-5.907,5.876-10.794,3.836C564.137,816.535,564.589,785.879,564.589,785.879Z" transform="translate(-155.371 -198.41)"/><path class="ac" d="M564.589,785.879s15.343-2.363,22.539,12.735a18.411,18.411,0,0,1-1.358,18.557c-2.386,3.368-5.907,5.876-10.794,3.836C564.137,816.535,564.589,785.879,564.589,785.879Z" transform="translate(-155.371 -198.41)"/><path class="ad" d="M586.16,803.13s2.094,1.933,1.289,2.417S586.16,803.13,586.16,803.13Z" transform="translate(-160.394 -202.458)"/><path class="ad" d="M582.927,806.35s1.143,2.524.33,2.8-1.3-1.81-1.3-1.81Z" transform="translate(-159.416 -203.207)"/><path class="ad" d="M589.67,811.32s1.112,2.977,0,2.977S589.67,811.32,589.67,811.32Z" transform="translate(-161.096 -204.365)"/><path class="ae" d="M589.17,821.71s-2.24,5.723-8.07,5.316" transform="translate(-159.216 -206.784)"/><path class="ae" d="M583.333,823.91s-2.3,2.255-4.833.644" transform="translate(-158.611 -207.296)"/><path class="ad" d="M553.2,842.448c.407-.077,8.055-3.383,15.941,0Z" transform="translate(-152.719 -211.259)"/><path class="g" d="M531.214,859.222c-7.15-1.066-12.274-3.107-12.712-6.69a20.705,20.705,0,0,1-.161-4.6,10.321,10.321,0,0,1,2.731-1c1.3-.36,2.9-.115,6.283.852s3.138,4.948,3.836,10.142A4.289,4.289,0,0,1,531.214,859.222Z" transform="translate(-144.589 -212.62)"/><path class="h" d="M519.542,847.584s-9.3,1.7-4.265,9.727a3.43,3.43,0,0,0,1.718,1.419c.591.207,1.158.207,1.1-.637l4.112,4.71s8.208.967,7.487-4.227-.483-9.206-3.836-10.142S520.854,847.223,519.542,847.584Z" transform="translate(-143.541 -212.773)"/><path class="ae" d="M524.18,854.67s1.972,4.5,4.71.721" transform="translate(-145.962 -214.459)"/><path class="ae" d="M518.28,857s1.02,4.265,4.887,1.089" transform="translate(-144.588 -215.001)"/><path class="g" d="M602.433,846.877h0c-.307,4.25-1.128,11.07-1.128,11.07s-3.414.414-8.692.89a4.451,4.451,0,0,1,0-.89c.721-5.194.483-9.206,3.836-10.142C599.594,846.953,601.2,846.639,602.433,846.877Z" transform="translate(-161.892 -212.626)"/><path class="h" d="M603.428,847.584s9.306,1.7,4.273,9.727a3.459,3.459,0,0,1-1.719,1.419c-.591.207-1.166.207-1.1-.637l-4.1,4.71s-8.216.967-7.487-4.227.483-9.206,3.836-10.142S602.139,847.223,603.428,847.584Z" transform="translate(-162.043 -212.773)"/><path class="ae" d="M602.21,854.67s-1.979,4.5-4.71.721" transform="translate(-163.035 -214.459)"/><path class="ae" d="M608.054,857s-1.028,4.265-4.895,1.089" transform="translate(-164.353 -215.001)"/><path class="g" d="M547.865,858.929c-3.115-.069-6.137-.23-8.937-.506l-2.785-9.375a6.088,6.088,0,0,1-.253-1.711,5.968,5.968,0,0,1,11.929-.038C547.85,850.95,547.881,855.577,547.865,858.929Z" transform="translate(-148.689 -211.407)"/><path class="h" d="M535.275,848.987l3.284,11.062s-5.585-.123-4.058,3.383c0,0,1.4,1.327,1.887.844,0,0-.729,2.3,2.171,2.3,0,0,3.13,1.7,4.342.483s3.751-3.023,4-3.744c.153-.476.107-9.727.054-16.11a5.953,5.953,0,0,0-5.961-5.907h0a5.961,5.961,0,0,0-5.715,7.687Z" transform="translate(-148.304 -211.345)"/><path class="ae" d="M540.907,869.47s-2.44,2.3-1.151,3.659" transform="translate(-149.502 -217.905)"/><path class="ae" d="M539.316,867.56s-2.256.767-2.256,2.831" transform="translate(-148.961 -217.46)"/><path class="g" d="M588.087,847.275a6.072,6.072,0,0,1-.246,1.711l-2.6,8.876c-2.746.222-5.83.437-9.091.621,0-3.314,0-7.725.054-11.246a5.961,5.961,0,1,1,11.921.038Z" transform="translate(-158.063 -211.344)"/><path class="h" d="M588.443,848.987l-3.283,11.062s5.592-.123,4.066,3.383c0,0-1.4,1.327-1.887.844,0,0,.721,2.3-2.179,2.3,0,0-3.13,1.7-4.342.483s-3.744-3.023-3.989-3.744c-.153-.476-.107-9.727-.054-16.11a5.953,5.953,0,0,1,5.961-5.907h0a5.961,5.961,0,0,1,5.708,7.687Z" transform="translate(-158.197 -211.345)"/><path class="ae" d="M586.23,869.47s2.44,2.3,1.151,3.659" transform="translate(-160.411 -217.905)"/><path class="ae" d="M587.63,867.56s2.255.767,2.255,2.831" transform="translate(-160.737 -217.46)"/><path class="g" d="M557.26,782.769s-11.362-.36-11.722,8.439,17.752,5.071,17.752,5.071,7.61-1.02,6.283-6.367S565.477,783.253,557.26,782.769Z" transform="translate(-150.934 -197.716)"/><path class="g" d="M557.26,781.509s-11.362-.36-11.722,8.439,17.752,5.071,17.752,5.071,7.61-1.02,6.283-6.367S565.477,781.993,557.26,781.509Z" transform="translate(-150.934 -197.423)"/><path class="ad" d="M557.26,782.139s-11.362-.361-11.722,8.439,17.752,5.071,17.752,5.071,7.61-1.02,6.283-6.367S565.477,782.623,557.26,782.139Z" transform="translate(-150.934 -197.57)"/><path class="g" d="M527.78,839.92s3.836,1.366,4.6,3.982" transform="translate(-146.801 -211.024)"/><path class="g" d="M597.509,837.4s-2.723,1.143-2.532,5.915" transform="translate(-162.445 -210.437)"/><ellipse class="h" cx="1.778" cy="2.948" rx="1.778" ry="2.948" transform="translate(379.582 647.169) rotate(-29.887)"/><ellipse class="h" cx="2.938" cy="1.772" rx="2.938" ry="1.772" transform="translate(433.577 647.862) rotate(-60)"/><ellipse class="ac" cx="1.778" cy="2.948" rx="1.778" ry="2.948" transform="translate(379.582 647.169) rotate(-29.887)"/><ellipse class="ac" cx="2.938" cy="1.772" rx="2.938" ry="1.772" transform="translate(433.577 647.862) rotate(-60)"/><ellipse class="b" cx="20.659" cy="3.491" rx="20.659" ry="3.491" transform="translate(127.091 545.836)"/><ellipse class="b" cx="20.659" cy="3.491" rx="20.659" ry="3.491" transform="translate(45.704 595.341)"/><ellipse class="h" cx="30.847" cy="5.217" rx="30.847" ry="5.217" transform="translate(14.005 549.327)"/><path class="h" d="M72.077,727.565a8.922,8.922,0,0,1-2.946-4.434c-.376-1.764.376-3.874,2.056-4.518,1.887-.721,3.9.583,5.431,1.9s3.283,2.831,5.286,2.555a8.047,8.047,0,0,1-2.486-7.533,3.069,3.069,0,0,1,.69-1.534c1.043-1.12,2.946-.637,4.2.246,3.982,2.808,5.1,8.224,5.117,13.1.407-1.765.069-3.59.077-5.37s.506-3.836,2.025-4.772a6.137,6.137,0,0,1,3.069-.767c1.8-.061,3.79.115,5.017,1.427,1.534,1.626,1.128,4.365-.2,6.137s-3.337,2.915-5.186,4.158a11.445,11.445,0,0,0-3.713,3.537,3.615,3.615,0,0,0-.276.629H79.035a31.022,31.022,0,0,1-6.958-4.764Z" transform="translate(-39.982 -181.552)"/><ellipse class="b" cx="20.659" cy="3.491" rx="20.659" ry="3.491" transform="translate(769.373 575.034)"/><path class="af" d="M1042.91,751.178s11.783-.361,15.343-2.892,18.12-5.546,19-1.488,17.714,20.168,4.4,20.276-30.909-2.071-34.453-4.235S1042.91,751.178,1042.91,751.178Z" transform="translate(-266.748 -188.878)"/><path class="ag" d="M1081.889,767.6c-13.3.107-30.908-2.071-34.453-4.235-2.7-1.642-3.774-7.541-4.135-10.265h-.391s.767,9.505,4.288,11.661,21.15,4.342,34.453,4.235c3.836,0,5.171-1.4,5.094-3.421C1086.216,766.832,1084.75,767.6,1081.889,767.6Z" transform="translate(-266.748 -190.808)"/></g></svg>